<?xml version="1.0" standalone="no"?>
<!DOCTYPE svg PUBLIC "-//W3C//DTD SVG 1.1//EN" "http://www.w3.org/Graphics/SVG/1.1/DTD/svg11.dtd" >
<svg xmlns="http://www.w3.org/2000/svg">
<metadata>
This is a custom SVG font generated by IcoMoon.
<iconset grid="20"></iconset>
</metadata>
<defs>
<font id="icomoon" horiz-adv-x="640" >
<font-face units-per-em="640" ascent="608" descent="-32" />
<missing-glyph horiz-adv-x="640" />
<glyph unicode="&#xf47c;" d="M 560.00-32.00l-480.00,0.00 q-33.125,0.00 -56.563,23.438t-23.438,56.563l0.00,480.00 q0.00,33.125 23.438,56.25t 56.563,23.125l 360.00,0.00 l-80.00-79.375l-240.00,0.00 q-16.875,0.00 -28.438-11.875t-11.563-28.125l0.00-400.00 q0.00-16.875 11.875-28.438t 28.125-11.563l 400.00,0.00 q 16.875,0.00 28.438,11.563t 11.563,28.438l0.00,240.00 l 80.00,80.00l0.00-360.00 q0.00-33.125 -23.438-56.563t-56.563-23.438zM 200.00,258.00l 90.00-90.00l-130.00-40.00zM 330.00,198.00
l-100.00,99.375l 299.375,300.00q 10.625,10.00 25.313,10.00t 25.313-10.00l 49.375-50.00q 10.00-10.00 10.313-24.688t-10.313-25.313z" data-tags="uniF47C" />
<glyph unicode="&#xe001;" d="M 529.952,497.984c-46.144,46.176-80.80,39.264-80.80,39.264L 287.456,375.552L 102.72,190.816L 70.40,38.40l 152.416,32.32l 184.736,184.736l 161.664,161.664
		C 569.216,417.12, 576.16,451.776, 529.952,497.984z M 213.728,89.056l-51.936-11.20c-5.024,9.376-11.072,18.752-22.112,29.824
		c-11.04,11.04-20.448,17.056-29.824,22.08l 11.232,51.968l 15.008,15.008c0.00,0.00, 28.288-0.576, 60.192-32.48c 31.936-31.936, 32.512-60.224, 32.512-60.224
		L 213.728,89.056z" data-tags="pencil, write, blog, edit, save" />
<glyph unicode="&#xe005;" d="M 474.24,145.664c-78.88,28.736-104.096,52.992-104.096,104.928c0.00,31.168, 24.096,20.992, 34.656,78.08c 4.384,23.68, 25.664,0.384, 29.76,54.432
		c0.00,21.536-11.616,26.912-11.616,26.912s 5.92,31.904, 8.224,56.416C 433.984,497.024, 413.504,576.00, 304.00,576.00C 194.528,576.00, 173.984,497.024, 176.864,466.432
		C 179.168,441.92, 185.088,410.016, 185.088,410.016S 173.44,404.672, 173.44,383.104c 4.064-54.048, 25.344-30.752, 29.728-54.432
		c 10.592-57.088, 34.688-46.912, 34.688-78.08c0.00-51.936-25.216-76.192-104.096-104.928c-79.168-28.80-130.56-58.208-130.56-78.272c0.00-20.032,0.00-67.36,0.00-67.36
		l 300.80,0.00 l 300.80,0.00 c0.00,0.00,0.00,47.328,0.00,67.36C 604.80,87.424, 553.376,116.832, 474.24,145.664z" data-tags="user, group, profile, avatar, persona" />
<glyph unicode="&#xe006;" d="M 389.266,168.79c-13.819,2.199-14.134,40.196-14.134,40.196s 40.605,40.198, 49.455,94.251
	c 23.806,0.00, 38.511,57.466, 14.701,77.685C 440.283,402.206, 469.889,548.00, 320.00,548.00c-149.889,0.00-120.281-145.794-119.29-167.078
	c-23.809-20.219-9.106-77.685, 14.701-77.685c 8.849-54.054, 49.455-94.251, 49.455-94.251s-0.315-37.998-14.134-40.196
	C 206.22,161.707, 40.00,88.394, 40.00,8.00l 280.00,0.00 l 280.00,0.00 C 600.00,88.394, 433.78,161.707, 389.266,168.79z" data-tags="user, profile, avatar, person, talk, member" />
<glyph unicode="&#xe007;" d="M 320.00,288.00L 320.00,408.00L 280.00,408.00L 280.00,248.00L 400.00,248.00L 400.00,288.00 	zM 300.00,568.00C 134.32,568.00,0.00,433.68,0.00,268.00s 134.32-300.00, 300.00-300.00s 300.00,134.32, 300.00,300.00S 465.68,568.00, 300.00,568.00z M 300.00,43.00C 175.74,43.00, 75.00,143.72, 75.00,268.00
		C 75.00,392.26, 175.74,493.00, 300.00,493.00S 525.00,392.26, 525.00,268.00C 525.00,143.72, 424.26,43.00, 300.00,43.00z" data-tags="clock, time, history" />
<glyph unicode="&#xe008;" d="M 320.00,582.40c-162.592,0.00-294.40-131.84-294.40-294.40c0.00-162.592, 131.808-294.40, 294.40-294.40s 294.40,131.808, 294.40,294.40C 614.40,450.592, 482.592,582.40, 320.00,582.40z M 320.00,57.60
			c-127.264,0.00-230.40,103.168-230.40,230.40S 192.736,518.40, 320.00,518.40s 230.40-103.168, 230.40-230.40S 447.264,57.60, 320.00,57.60zM 342.40,454.40L 297.60,454.40L 297.60,278.72L 406.56,169.76L 438.24,201.44L 342.40,297.28 		z" data-tags="clock, time, history" />
<glyph unicode="&#xf017;" d="M 388.571,276.571l0.00-22.857 q0.00-4.643 -3.393-8.036t-8.036-3.393l-137.143,0.00 q-4.643,0.00 -8.036,3.393t-3.393,8.036l0.00,160.00 q0.00,4.643 3.393,8.036t 8.036,3.393l 22.857,0.00 q 4.643,0.00 8.036-3.393t 3.393-8.036l0.00-125.714 l 102.857,0.00 q 4.643,0.00 8.036-3.393t 3.393-8.036zM 457.143,288.00q0.00,37.143 -14.464,70.893t-39.107,58.393t-58.393,39.107t-70.893,14.464t-70.893-14.464 t-58.393-39.107t-39.107-58.393t-14.464-70.893t 14.464-70.893t 39.107-58.393t 58.393-39.107t 70.893-14.464t 70.893,14.464t 58.393,39.107t 39.107,58.393t 14.464,70.893zM 548.571,288.00q0.00-74.643 -36.786-137.679t-99.821-99.821t-137.679-36.786t-137.679,36.786t-99.821,99.821t-36.786,137.679t 36.786,137.679t 99.821,99.821 t 137.679,36.786t 137.679-36.786t 99.821-99.821t 36.786-137.679z" horiz-adv-x="548.5714285714286" data-tags="time, clock" />
<glyph unicode="&#xe009;" d="M 320.00,538.00c-143.62,0.00-260.00-116.40-260.00-260.00s 116.38-260.00, 260.00-260.00c 143.58,0.00, 260.00,116.40, 260.00,260.00
			S 463.60,538.00, 320.00,538.00z M 317.90,67.46c-115.98,0.00-210.00,94.02-210.00,210.00c0.00,115.98, 94.02,210.00, 210.00,210.00c 115.96,0.00, 210.00-94.02, 210.00-210.00
			C 527.90,161.48, 433.86,67.46, 317.90,67.46z M 378.60,265.38l-59.60,0.00 l0.00,100.64 c0.00,10.92-8.86,19.80-19.78,19.80
			c-10.94,0.00-19.80-8.86-19.80-19.80l0.00-120.42 c0.00-10.94, 8.86-19.78, 19.80-19.78l 79.38,0.00 c 10.94,0.00, 19.80,8.84, 19.80,19.78
			C 398.40,256.52, 389.54,265.38, 378.60,265.38z" data-tags="time, clock" />
<glyph unicode="&#xe00a;" d="M 411.715,139.715L 280.00,271.431L 280.00,448.00L 360.00,448.00L 360.00,304.569L 468.285,196.285 	zM 320.00,608.00C 143.269,608.00,0.00,464.731,0.00,288.00s 143.269-320.00, 320.00-320.00s 320.00,143.269, 320.00,320.00S 496.731,608.00, 320.00,608.00z M 320.00,48.00
		c-132.549,0.00-240.00,107.451-240.00,240.00c0.00,132.549, 107.451,240.00, 240.00,240.00c 132.549,0.00, 240.00-107.451, 240.00-240.00C 560.00,155.451, 452.549,48.00, 320.00,48.00z" data-tags="clock, time, schedule" />
<glyph unicode="&#xe00b;" d="M 320.00,608.00C 143.26,608.00,0.00,464.72,0.00,288.00c0.00-176.72, 143.26-320.00, 320.00-320.00s 320.00,143.28, 320.00,320.00
			C 640.00,464.72, 496.74,608.00, 320.00,608.00z M 320.00,48.00C 187.46,48.00, 80.00,155.46, 80.00,288.00S 187.46,528.00, 320.00,528.00s 240.00-107.46, 240.00-240.00S 452.54,48.00, 320.00,48.00zM 460.00,328.00l-100.00,0.00 L 360.00,468.00 c0.00,11.04-8.94,20.00-20.00,20.00l-40.00,0.00 c-11.06,0.00-20.00-8.96-20.00-20.00l0.00-200.00 c0.00-11.06, 8.94-20.00, 20.00-20.00
	l 160.00,0.00 c 11.06,0.00, 20.00,8.94, 20.00,20.00l0.00,40.00 C 480.00,319.06, 471.06,328.00, 460.00,328.00z" data-tags="clock, time, history" />
<glyph unicode="&#xe00c;" d="M 320.00,528.00c 132.34,0.00, 240.00-107.66, 240.00-240.00s-107.66-240.00-240.00-240.00S 80.00,155.66, 80.00,288.00S 187.66,528.00, 320.00,528.00 M 320.00,608.00
			C 143.28,608.00,0.00,464.72,0.00,288.00s 143.28-320.00, 320.00-320.00s 320.00,143.28, 320.00,320.00S 496.72,608.00, 320.00,608.00L 320.00,608.00zM 428.44,236.44L 360.00,304.96L 360.00,448.00 l-80.46,0.00 l0.00-159.84 c0.00-12.04, 5.54-22.42, 13.90-29.84l 78.44-78.44
			L 428.44,236.44z" data-tags="clock, time" />
<glyph unicode="&#xe00d;" d="M 320.00,608.00C 143.269,608.00,0.00,464.731,0.00,288.00s 143.269-320.00, 320.00-320.00s 320.00,143.269, 320.00,320.00S 496.731,608.00, 320.00,608.00z M 411.715,139.715L 280.00,271.431
		L 280.00,448.00 l 80.00,0.00 l0.00-143.431 l 108.285-108.284L 411.715,139.715z" data-tags="clock, time, schedule" />
<glyph unicode="&#xe012;" d="M 309.52,218.78l-169.02-170.02L 140.50,507.24 l 339.02,0.00 l0.00-458.48 L 309.52,218.78z" data-tags="bookmark, favorite, ribbon" />
<glyph unicode="&#xe013;" d="M 160.00,528.00L 160.00-32.00L 360.00,168.00L 560.00-32.00L 560.00,528.00 	zM 480.00,608.00L 80.00,608.00L 80.00,48.00L 120.00,88.00L 120.00,568.00L 480.00,568.00 	z" data-tags="bookmarks, favorite, ribbon" />
<glyph unicode="&#xe014;" d="M 120.00,608.00L 120.00-32.00L 320.00,168.00L 520.00-32.00L 520.00,608.00 z" data-tags="bookmark, ribbon" />
<glyph unicode="&#xe016;" d="M 512.00,512.00L 128.00,512.00 C 92.80,512.00, 64.00,483.20, 64.00,448.00l0.00-224.00 c0.00-35.20, 28.80-64.00, 64.00-64.00l 128.00,0.00 l 128.00-96.00l0.00,96.00 l 128.00,0.00 c 35.20,0.00, 64.00,28.80, 64.00,64.00L 576.00,448.00 C 576.00,483.20, 547.20,512.00, 512.00,512.00z" data-tags="comment, bubble, chat, talk, discussion, conversation" />
<glyph unicode="&#xe017;" d="M 320.00,568.00 C 496.731,568.00 640.00,451.594 640.00,308.00 C 640.00,164.405 496.731,48.00 320.00,48.00 C 303.027,48.00 286.369,49.084 270.11,51.153 C 201.374-17.584 119.329-29.91 40.00-31.72 L 40.00-14.898 C 82.835,6.089 120.00,44.315 120.00,88.00 C 120.00,94.096 119.526,100.081 118.648,105.935 C 46.275,153.60 0.00,226.406 0.00,308.00 C 0.00,451.594 143.269,568.00 320.00,568.00 Z" data-tags="bubble, comment, chat, talk" />
<glyph unicode="&#xe018;" d="M 300.00,608.00 L 300.00,608.00 C 465.685,608.00 600.00,499.304 600.00,365.22 C 600.00,231.136 465.685,122.44 300.00,122.44 C 284.089,122.44 268.471,123.453 253.229,125.384 C 188.787,61.20 114.371,49.691 40.00,48.00 L 40.00,63.709 C 80.157,83.305 112.50,119.00 112.50,159.793 C 112.50,165.484 112.055,171.073 111.231,176.539 C 43.383,221.048 0.00,289.031 0.00,365.22 C 0.00,499.304 134.315,608.00 300.00,608.00 ZM 622.50,63.821 C 622.50,28.857 645.196-1.74 680.00-18.536 L 680.00-32.00 C 615.546-30.551 556.384-20.686 500.536,34.329 C 487.324,32.673 473.79,31.804 460.00,31.804 C 400.331,31.804 345.37,47.903 301.491,74.954 C 391.912,75.27 477.279,104.238 542.013,156.624 C 574.643,183.031 600.384,214.015 618.521,248.716 C 637.75,285.507 647.50,324.705 647.50,365.22 C 647.50,371.75 647.219,378.242 646.714,384.70 C 692.07,347.241 720.00,296.186 720.00,239.902 C 720.00,174.598 682.401,116.326 623.60,78.175 C 622.886,73.49 622.50,68.70 622.50,63.821 Z" horiz-adv-x="720" data-tags="bubbles, comments, chat, talk" />
<glyph unicode="&#xe01f;" d="M 421.76,246.08c-22.976,0.00-41.60-25.792-41.60-57.568c0.00-31.808, 18.624-57.60, 41.60-57.60s 41.60,25.792, 41.60,57.60
	C 463.328,220.32, 444.704,246.08, 421.76,246.08z M 566.592,395.968c 4.736,11.68, 4.96,78.08-20.288,141.632c0.00,0.00-57.984-6.336-145.664-66.528
	c-18.40,5.088-49.536,7.616-80.64,7.616c-31.136,0.00-62.24-2.56-80.672-7.616C 151.68,531.264, 93.728,537.60, 93.728,537.60
	C 68.48,474.048, 68.672,407.648, 73.44,395.968C 43.744,363.712, 25.60,324.992, 25.60,272.096c0.00-229.952, 190.784-233.632, 238.944-233.632
	c 10.912,0.00, 32.608-0.032, 55.488-0.064c 22.88,0.032, 44.576,0.064, 55.424,0.064c 48.192,0.00, 238.944,3.68, 238.944,233.632
	C 614.40,324.992, 596.288,363.712, 566.592,395.968z M 320.896,66.72L 319.136,66.72 c-120.704,0.00-214.72,14.40-214.72,131.712c0.00,28.096, 9.952,54.176, 33.472,75.808
	c 39.328,36.064, 105.792,16.96, 181.248,16.96c 0.288,0.00, 0.608,0.00, 0.896,0.032c 0.32,0.00, 0.608-0.032, 0.864-0.032c 75.456,0.00, 141.952,19.104, 181.248-16.96
	c 23.52-21.632, 33.44-47.712, 33.44-75.808C 535.584,81.12, 441.632,66.72, 320.896,66.72z M 218.272,246.08c-22.976,0.00-41.60-25.792-41.60-57.568
	c0.00-31.808, 18.624-57.60, 41.60-57.60s 41.60,25.792, 41.60,57.60C 259.872,220.32, 241.248,246.08, 218.272,246.08z" data-tags="github, social" />
<glyph unicode="&#xe020;" d="M 320.448,289.632c-0.16,0.00-0.32,0.00-0.448,0.00c-0.192,0.00-0.32,0.00-0.48,0.00c-38.112,0.00-71.712,9.664-91.584-8.608
	c-11.904-10.944-16.896-24.096-16.896-38.272c0.00-59.296, 47.488-66.56, 108.48-66.56l 0.896,0.00 c 60.992,0.00, 108.48,7.296, 108.48,66.56
	c0.00,14.176-4.992,27.328-16.928,38.272C 392.192,299.296, 358.56,289.632, 320.448,289.632z M 268.608,208.64c-11.616,0.00-21.024,13.024-21.024,29.088
	s 9.408,29.088, 21.024,29.088s 21.024-13.024, 21.024-29.088S 280.192,208.64, 268.608,208.64z M 371.36,208.64c-11.552,0.00-20.992,13.024-20.992,29.088
	s 9.408,29.088, 20.992,29.088c 11.616,0.00, 21.056-13.024, 21.056-29.088S 383.008,208.64, 371.36,208.64z M 320.00,595.20C 150.336,595.20, 12.80,457.664, 12.80,288.00
	S 150.336-19.20, 320.00-19.20c 169.60,0.00, 307.168,137.536, 307.168,307.20S 489.632,595.20, 320.00,595.20z M 348.00,161.92c-5.504,0.00-16.448,0.00-28.00-0.032
	C 308.416,161.92, 297.472,161.92, 292.00,161.92c-24.352,0.00-120.736,1.888-120.736,118.048c0.00,26.72, 9.152,46.272, 24.16,62.56
	C 193.024,348.448, 192.896,382.016, 205.664,414.08c0.00,0.00, 29.312-3.20, 73.60-33.60c 9.28,2.56, 24.992,3.84, 40.736,3.84c 15.68,0.00, 31.424-1.28, 40.736-3.84
	c 44.32,30.40, 73.568,33.60, 73.568,33.60c 12.736-32.096, 12.672-65.664, 10.24-71.552c 15.008-16.288, 24.192-35.84, 24.192-62.56
	C 468.736,163.776, 372.384,161.92, 348.00,161.92z" data-tags="github, social" />
<glyph unicode="&#xe021;" d="M 157.536,160.00C 88.192,160.00, 32.00,217.248, 32.00,288.00s 56.192,128.00, 125.536,128.00c 69.344,0.00, 125.568-57.28, 125.568-128.00S 226.88,160.00, 157.536,160.00z M 482.432,160.00
	c-69.376,0.00-125.632,57.248-125.632,128.00s 56.256,128.00, 125.632,128.00C 551.744,416.00, 608.00,358.72, 608.00,288.00S 551.744,160.00, 482.432,160.00z" data-tags="flickr, social" />
<glyph unicode="&#xe022;" d="M 320.00,595.20C 150.336,595.20, 12.80,457.664, 12.80,288.00S 150.336-19.20, 320.00-19.20S 627.20,118.336, 627.20,288.00S 489.696,595.20, 320.00,595.20z M 237.92,223.328
	c-35.04,0.00-63.424,28.928-63.424,64.672c0.00,35.744, 28.384,64.672, 63.424,64.672c 35.04,0.00, 63.456-28.928, 63.456-64.672
	C 301.344,252.256, 272.96,223.328, 237.92,223.328z M 402.048,223.328c-35.072,0.00-63.456,28.928-63.456,64.672c0.00,35.744, 28.384,64.672, 63.456,64.672
	c 35.008,0.00, 63.424-28.928, 63.424-64.672C 465.504,252.256, 437.056,223.328, 402.048,223.328z" data-tags="flickr, social" />
<glyph unicode="&#xe023;" d="M 605.12,421.088c-32.192-184.704-212.00-341.12-266.08-376.832c-54.112-35.712-103.424,14.304-121.344,52.16
	C 197.216,139.52, 135.808,373.44, 119.712,392.768C 103.648,412.192, 55.392,373.44, 55.392,373.44L 32.00,404.672c0.00,0.00, 97.984,119.20, 172.544,134.08
	c 79.04,15.776, 78.912-123.648, 97.92-201.056c 18.40-74.912, 30.752-117.792, 46.784-117.792c 16.096,0.00, 46.784,41.792, 80.416,105.824
	c 33.696,64.096-1.44,120.672-67.264,80.448C 388.704,567.072, 637.312,605.76, 605.12,421.088z" data-tags="vimeo, social" />
<glyph unicode="&#xe024;" d="M 320.00,595.20c-169.664,0.00-307.20-137.536-307.20-307.20s 137.536-307.20, 307.20-307.20s 307.20,137.536, 307.20,307.20S 489.664,595.20, 320.00,595.20z M 460.80,347.168
	c-16.256-93.344-107.136-172.352-134.432-190.40c-27.328-18.016-52.256,7.264-61.312,26.336C 254.72,204.896, 223.68,323.072, 215.552,332.832
	C 207.424,342.656, 183.072,323.072, 183.072,323.072L 171.264,338.88c0.00,0.00, 49.504,60.224, 87.168,67.712c 39.936,8.00, 39.872-62.432, 49.472-101.568
	c 9.312-37.856, 15.552-59.488, 23.648-59.488c 8.128,0.00, 23.648,21.088, 40.64,53.44c 17.024,32.416-0.704,60.992-33.984,40.672
	C 351.456,420.896, 477.088,440.48, 460.80,347.168z" data-tags="vimeo, social" />
<glyph unicode="&#xe025;" d="M 614.40,470.624c-21.696-9.632-44.96-16.096-69.408-19.04c 24.96,14.944, 44.128,38.624, 53.12,66.816c-23.328-13.824-49.184-23.904-76.672-29.312
	c-22.048,23.488-53.44,38.144-88.192,38.144c-66.72,0.00-120.80-54.08-120.80-120.768c0.00-9.472, 1.056-18.688, 3.136-27.52
	c-100.384,5.024-189.408,53.12-248.96,126.208C 56.192,487.328, 50.208,466.56, 50.208,444.416c0.00-41.92, 21.344-78.88, 53.76-100.544
	c-19.808,0.64-38.432,6.048-54.72,15.104c0.00-0.512,0.00-0.992,0.00-1.504c0.00-58.528, 41.664-107.328, 96.896-118.464c-10.112-2.752-20.80-4.224-31.84-4.224
	c-7.776,0.00-15.328,0.736-22.72,2.144c 15.36-48.00, 60.00-82.912, 112.832-83.872c-41.344-32.416-93.408-51.712-150.016-51.712
	c-9.76,0.00-19.36,0.576-28.80,1.696c 53.44-34.272, 116.928-54.272, 185.184-54.272c 222.176,0.00, 343.68,184.064, 343.68,343.712
	c0.00,5.216-0.096,10.432-0.352,15.616C 577.728,425.12, 598.176,446.40, 614.40,470.624z" data-tags="twitter, social" />
<glyph unicode="&#xe026;" d="M 320.00,595.20c-169.664,0.00-307.20-137.536-307.20-307.20s 137.536-307.20, 307.20-307.20s 307.20,137.536, 307.20,307.20S 489.664,595.20, 320.00,595.20z M 444.928,343.52
	c 0.128-2.592, 0.192-5.216, 0.192-7.84c0.00-79.936-60.864-172.128-172.16-172.128c-34.144,0.00-65.984,9.984-92.736,27.20
	c 4.736-0.576, 9.568-0.832, 14.432-0.832c 28.352,0.00, 54.432,9.664, 75.168,25.92c-26.464,0.48-48.832,17.984-56.544,41.984
	c 3.68-0.704, 7.488-1.088, 11.36-1.088c 5.536,0.00, 10.88,0.736, 15.936,2.112c-27.648,5.568-48.544,30.016-48.544,59.328
	c0.00,0.256,0.00,0.512, 0.032,0.736C 200.224,314.40, 209.568,311.68, 219.456,311.36C 203.264,322.208, 192.576,340.704, 192.576,361.728
	c0.00,11.104, 2.976,21.504, 8.192,30.432C 230.592,355.52, 275.20,331.424, 325.472,328.928c-1.024,4.416-1.568,9.024-1.568,13.792
	c0.00,33.408, 27.104,60.512, 60.512,60.512c 17.408,0.00, 33.12-7.328, 44.16-19.104c 13.792,2.688, 26.752,7.712, 38.432,14.656
	c-4.544-14.112-14.112-25.984-26.624-33.472c 12.256,1.472, 23.904,4.704, 34.752,9.536C 467.04,362.72, 456.736,352.064, 444.928,343.52z" data-tags="twitter, social" />
<glyph unicode="&#xe027;" d="M 480.00,475.872l-91.392,0.00 c-10.816,0.00-22.88-14.208-22.88-33.248L 365.728,376.64 L 480.00,376.64 l0.00-94.08 l-114.272,0.00 L 365.728,0.00 L 257.824,0.00 l0.00,282.528 L 160.00,282.528 L 160.00,376.64 l 97.824,0.00 L 257.824,432.00 
	c0.00,79.392, 55.104,144.00, 130.752,144.00L 480.00,576.00 L 480.00,475.872 z" data-tags="facebook, social" />
<glyph unicode="&#xe028;" d="M 320.00,595.20c-169.664,0.00-307.20-137.536-307.20-307.20s 137.536-307.20, 307.20-307.20s 307.20,137.536, 307.20,307.20S 489.664,595.20, 320.00,595.20z M 392.736,382.912L 346.56,382.912 
	c-5.44,0.00-11.52-7.20-11.52-16.768l0.00-33.344 l 57.728,0.00 l0.00-47.552 L 335.04,285.248 l0.00-142.752 L 280.512,142.496 l0.00,142.752 L 231.104,285.248 L 231.104,332.768 l 49.408,0.00 L 280.512,360.736 
	c0.00,40.128, 27.84,72.736, 66.048,72.736l 46.176,0.00 L 392.736,382.912 z" data-tags="facebook, social" />
<glyph unicode="&#xe029;" d="M 526.40,563.20L 113.60,563.20 C 75.776,563.20, 44.80,532.224, 44.80,494.40l0.00-412.80 c0.00-37.856, 30.976-68.768, 68.768-68.768l 208.768,0.00 l0.00,197.344 l-65.92,0.00 L 256.416,296.128 l 65.92,0.00 L 322.336,339.20 
	c0.00,66.40, 49.024,118.40, 111.616,118.40l 60.736,0.00 l0.00-97.088 l-54.368,0.00 c-14.208,0.00-18.368-8.16-18.368-19.424l0.00-44.928 l 72.736,0.00 l0.00-85.984 l-72.736,0.00 L 421.952,12.80 l 104.416,0.00 
	c 37.856,0.00, 68.768,30.944, 68.768,68.768L 595.136,494.40 C 595.20,532.224, 564.256,563.20, 526.40,563.20z" data-tags="facebook, social" />
<glyph unicode="&#xe02a;" d="M 63.68,429.152c0.00-47.776, 15.968-82.304, 47.424-102.56c 25.76-16.608, 55.68-19.104, 71.232-19.104c 3.776,0.00, 6.784,0.16, 8.896,0.288
	c0.00,0.00-4.928-32.096, 18.88-63.872l-1.088,0.032c-41.248,0.00-175.808-8.64-175.808-119.264c0.00-112.544, 123.584-118.24, 148.352-118.24
	c 1.952,0.00, 3.072,0.032, 3.072,0.032c 0.288,0.00, 2.048-0.064, 5.056-0.064c 15.904,0.00, 57.024,1.984, 95.232,20.576
	c 49.536,24.032, 74.688,65.888, 74.688,124.32c0.00,56.48-38.272,90.08-66.24,114.656c-17.056,14.976-31.808,27.904-31.808,40.48
	c0.00,12.80, 10.752,22.432, 24.384,34.624c 22.016,19.712, 42.816,47.776, 42.816,100.832c0.00,46.656-6.048,77.952-43.328,97.792
	c 3.904,1.984, 17.632,3.424, 24.448,4.384c 20.192,2.752, 49.728,5.888, 49.728,22.368L 359.616,569.60 L 212.48,569.60 C 211.008,569.568, 63.68,564.096, 63.68,429.152z
	 M 301.216,140.736c 2.816-44.992-35.68-78.208-93.472-82.40c-58.688-4.32-107.04,22.112-109.856,67.104c-1.344,21.60, 8.128,42.752, 26.72,59.616
	c 18.88,17.056, 44.736,27.584, 72.928,29.696c 3.328,0.192, 6.624,0.352, 9.92,0.352C 261.76,215.104, 298.56,183.168, 301.216,140.736z M 262.784,459.968
	c 14.432-50.784-7.36-103.872-42.08-113.664C 216.704,345.184, 212.576,344.608, 208.416,344.608c-31.84,0.00-63.36,32.192-75.04,76.544
	C 126.848,446.08, 127.36,467.84, 134.848,488.80C 142.208,509.376, 155.424,523.328, 172.064,528.00c 4.00,1.152, 8.16,1.696, 12.32,1.696
	C 222.784,529.696, 247.488,513.76, 262.784,459.968z M 510.752,349.376l0.00,96.00 l-60.80,0.00 l0.00-96.00 l-96.00,0.00 l0.00-60.80 l 96.00,0.00 l0.00-96.00 l 60.80,0.00 l0.00,96.00 l 96.00,0.00 l0.00,60.80 L 510.752,349.376 z" data-tags="googleplus, social" />
<glyph unicode="&#xe02b;" d="M 291.104,374.88c-7.712,27.20-20.192,35.232-39.616,35.232c-2.08,0.00-4.192-0.288-6.208-0.832C 236.832,406.88, 230.176,399.84, 226.464,389.44
	C 222.656,378.88, 222.40,367.84, 225.728,355.296c 5.888-22.40, 21.824-38.688, 37.92-38.688c 2.08,0.00, 4.192,0.288, 6.208,0.832
	C 287.36,322.40, 298.368,349.216, 291.104,374.88z M 320.00,595.20c-169.664,0.00-307.20-137.536-307.20-307.20s 137.536-307.20, 307.20-307.20c 169.696,0.00, 307.20,137.536, 307.20,307.20
	S 489.696,595.20, 320.00,595.20z M 302.304,156.096c-19.328-9.376-40.096-10.368-48.128-10.368c-1.536,0.00-2.40,0.032-2.528,0.032c0.00,0.00-0.608,0.00-1.568,0.00
	c-12.544,0.00-74.976,2.88-74.976,59.744c0.00,55.872, 67.968,60.224, 88.80,60.224l 0.576,0.00 C 252.48,281.792, 254.976,297.984, 254.976,297.984
	C 253.92,297.92, 252.352,297.856, 250.464,297.856c-7.872,0.00-23.008,1.248-36.00,9.664C 198.56,317.728, 190.496,335.168, 190.496,359.328
	c0.00,68.192, 74.432,70.944, 75.20,70.976l 74.336,0.00 l0.00-1.632 c0.00-8.32-14.912-9.92-25.12-11.328C 311.456,416.864, 304.544,416.16, 302.56,415.168
	c 18.848-10.048, 21.888-25.888, 21.888-49.44c0.00-26.784-10.496-40.96-21.632-50.944C 295.936,308.64, 290.496,303.744, 290.496,297.28
	c0.00-6.336, 7.424-12.864, 16.064-20.448c 14.112-12.416, 33.472-29.408, 33.472-57.952C 340.032,189.376, 327.328,168.256, 302.304,156.096z M 464.864,288.288
	l-48.512,0.00 l0.00-48.512 l-30.72,0.00 L 385.632,288.288 l-48.512,0.00 l0.00,30.72 l 48.512,0.00 L 385.632,367.488 l 30.72,0.00 l0.00-48.512 l 48.512,0.00 L 464.864,288.288 z M 263.136,251.168c-1.664,0.00-3.328-0.064-4.992-0.192
	c-14.208-1.024-27.328-6.368-36.832-15.008c-9.408-8.512-14.176-19.232-13.504-30.112c 1.408-22.72, 25.856-36.064, 55.488-33.92
	c 29.216,2.112, 48.672,18.912, 47.232,41.664C 309.152,235.008, 290.56,251.168, 263.136,251.168z" data-tags="googleplus, social" />
<glyph unicode="&#xe02c;" d="M 275.712,184.704C 258.912,96.608, 238.40,12.128, 177.60-32.00c-18.752,133.184, 27.552,233.184, 49.056,339.36
	c-36.672,61.76, 4.416,185.984, 81.792,155.36c 95.20-37.664-82.432-229.536, 36.80-253.504c 124.512-25.024, 175.328,216.00, 98.144,294.368
	C 331.84,616.80, 118.656,506.208, 144.896,344.192c 6.368-39.616, 47.296-51.648, 16.352-106.304c-71.392,15.808-92.704,72.128-89.952,147.20
	C 75.712,507.936, 181.696,593.952, 288.00,605.856c 134.464,15.072, 260.64-49.344, 278.016-175.808c 19.616-142.72-60.64-297.312-204.448-286.176
	C 322.624,146.848, 306.272,166.144, 275.712,184.704z" data-tags="pinterest, social" />
<glyph unicode="&#xe02d;" d="M 320.00,595.20c-169.664,0.00-307.20-137.536-307.20-307.20s 137.536-307.20, 307.20-307.20s 307.20,137.536, 307.20,307.20S 489.664,595.20, 320.00,595.20z M 340.992,215.168
	c-19.68,1.536-27.936,11.296-43.36,20.672c-8.512-44.544-18.848-87.232-49.60-109.504c-9.472,67.296, 13.952,117.824, 24.80,171.456
	C 254.304,328.96, 275.072,391.744, 314.144,376.288c 48.096-19.04-41.664-115.968, 18.592-128.096c 62.912-12.64, 88.576,109.152, 49.568,148.736
	c-56.352,57.184-164.032,1.312-150.784-80.576c 3.232-20.032, 23.872-26.08, 8.256-53.728c-36.064,8.00-46.848,36.448-45.44,74.368
	C 196.576,399.104, 250.112,442.56, 303.808,448.608c 67.936,7.584, 131.68-24.928, 140.512-88.832C 454.208,287.616, 413.632,209.536, 340.992,215.168z" data-tags="pinterest, social" />
<glyph unicode="&#xe02e;" d="M 499.20,25.728c-24.832-11.84-47.36-20.192-67.488-24.96c-20.16-4.736-41.984-7.168-65.376-7.168c-26.592,0.00-50.08,3.424-70.56,10.208
	c-20.416,6.816-37.824,16.512-52.288,29.024c-14.432,12.64-24.448,25.984-30.016,40.16c-5.60,14.176-8.384,34.72-8.384,61.632L 205.088,341.152 L 140.80,341.152 L 140.80,424.48 
	C 163.648,432.00, 183.264,442.72, 199.52,456.768c 16.32,14.016, 29.376,30.88, 39.264,50.56C 248.64,527.008, 255.392,552.00, 259.136,582.40l 82.72,0.00 l0.00-148.832 l 138.08,0.00 l0.00-92.416 
	l-138.08,0.00 l0.00-151.008 c0.00-34.112, 1.792-56.032, 5.408-65.76c 3.52-9.664, 10.176-17.408, 19.872-23.20c 12.928-7.808, 27.616-11.712, 44.192-11.712
	c 29.472,0.00, 58.752,9.696, 87.872,29.056L 499.20,25.728 z" data-tags="tumblr, social" />
<glyph unicode="&#xe02f;" d="M 320.00,595.20C 150.336,595.20, 12.80,457.664, 12.80,288.00S 150.336-19.20, 320.00-19.20c 169.664,0.00, 307.168,137.536, 307.168,307.20S 489.696,595.20, 320.00,595.20z M 402.432,155.456
	c-12.576-5.984-23.936-10.176-34.048-12.608c-10.176-2.40-21.248-3.616-33.056-3.616c-13.44,0.00-25.312,1.728-35.648,5.152
	c-10.304,3.424-19.136,8.352-26.432,14.688c-7.296,6.336-12.352,13.12-15.168,20.288s-4.224,17.536-4.224,31.136L 253.856,314.848 L 221.376,314.848 L 221.376,356.928 
	c 11.52,3.808, 21.44,9.248, 29.664,16.352c 8.224,7.072, 14.848,15.584, 19.808,25.536C 275.84,408.736, 279.296,421.408, 281.152,436.736l 41.792,0.00 l0.00-75.232 l 69.728,0.00 
	l0.00-46.688 l-69.728,0.00 l0.00-76.288 c0.00-17.248, 0.896-28.32, 2.72-33.216s 5.152-8.80, 10.048-11.712c 6.528-3.936, 13.984-5.952, 22.336-5.952
	c 14.88,0.00, 29.696,4.896, 44.384,14.72L 402.432,155.456 z" data-tags="tumblr, social" />
<glyph unicode="&#xe030;" d="M 162.432,510.40c0.00-34.016-25.12-61.568-66.432-61.568c-38.88,0.00-64.00,27.552-64.00,61.568c0.00,34.816, 25.952,61.568, 65.632,61.568
		S 161.632,545.216, 162.432,510.40z M 35.264,4.032L 35.264,400.192 L 158.40,400.192 l0.00-396.16 L 35.264,4.032 zM 232.096,273.824c0.00,49.408-1.632,90.72-3.264,126.368l 106.944,0.00 l 5.696-55.104l 2.432,0.00 c 16.192,25.952, 55.904,64.00, 122.336,64.00
		c 80.992,0.00, 141.76-54.272, 141.76-170.944l0.00-234.144 l-123.136,0.00 l0.00,219.552 c0.00,51.04-17.856,85.888-62.40,85.888c-34.016,0.00-54.24-23.488-63.168-46.176
		c-3.264-8.096-4.064-19.424-4.064-30.784l0.00-228.48 L 232.096,4.00 L 232.096,273.824 z" data-tags="linkedin, social" />
<glyph unicode="&#xe031;" d="M 320.00,595.20c-169.664,0.00-307.20-137.536-307.20-307.20s 137.536-307.20, 307.20-307.20s 307.20,137.536, 307.20,307.20S 489.664,595.20, 320.00,595.20z M 244.80,160.672L 182.592,160.672 L 182.592,360.832 L 244.80,360.832 
	L 244.80,160.672 z M 213.312,385.408c-19.648,0.00-32.352,13.952-32.352,31.136c0.00,17.60, 13.088,31.104, 33.152,31.104s 32.352-13.504, 32.736-31.104
	C 246.88,399.328, 234.176,385.408, 213.312,385.408z M 471.968,160.672l-62.176,0.00 l0.00,110.944 c0.00,25.792-9.024,43.36-31.52,43.36
	c-17.184,0.00-27.392-11.872-31.936-23.328c-1.632-4.064-2.048-9.824-2.048-15.52l0.00-115.424 L 282.048,160.704 l0.00,136.32 c0.00,24.96-0.80,45.856-1.632,63.84l 54.016,0.00 
	l 2.88-27.808l 1.216,0.00 c 8.192,13.088, 28.256,32.32, 61.824,32.32c 40.928,0.00, 71.616-27.392, 71.616-86.336L 471.968,160.672 z" data-tags="linkedin, social" />
<glyph unicode="&#xe032;" d="M 306.08,370.528C 262.624,447.808, 216.16,510.784, 212.736,515.392C 142.624,482.272, 90.272,417.696, 73.984,339.84C 80.576,339.712, 185.344,338.464, 306.08,370.528
	z M 337.408,286.08c 3.328,1.056, 6.592,2.016, 9.952,2.976c-6.304,14.304-13.216,28.608-20.416,42.72c-129.472-38.72-253.728-35.936-258.144-35.808
	C 68.704,293.312, 68.608,290.688, 68.608,288.00c0.00-64.672, 24.448-123.552, 64.512-168.096c-0.064,0.064-0.192,0.224-0.192,0.224
	S 201.76,242.176, 337.408,286.08z M 165.472,89.824l 0.064,0.096c-1.888,1.472-3.872,2.784-5.696,4.32
	C 163.168,91.552, 165.472,89.824, 165.472,89.824z M 259.776,532.096C 259.552,532.032, 259.328,532.00, 259.136,531.936C 259.488,532.032, 259.744,532.064, 259.776,532.096
	L 259.776,532.096z M 486.048,476.672c-44.288,39.008-102.368,62.72-166.016,62.72c-20.448,0.00-40.256-2.496-59.264-7.104
	c 3.808-5.056, 51.008-67.776, 94.016-146.656C 449.568,421.184, 485.408,475.648, 486.048,476.672z M 320.032-6.40C 157.408-6.40, 25.60,125.408, 25.60,288.00
	s 131.808,294.40, 294.432,294.40c 162.592,0.00, 294.368-131.808, 294.368-294.40S 482.624-6.40, 320.032-6.40z M 362.784,246.88c-147.552-51.424-196.288-154.848-197.248-156.96
	c 42.624-33.312, 96.192-53.312, 154.496-53.312c 34.816,0.00, 67.968,7.072, 98.112,19.872c-3.712,22.048-18.336,99.072-53.696,190.976
	C 363.904,247.232, 363.328,247.072, 362.784,246.88z M 374.08,348.192c 5.888-12.00, 11.488-24.16, 16.704-36.48c 1.888-4.352, 3.648-8.672, 5.44-12.992
	c 86.848,10.912, 172.32-7.616, 175.104-8.224c-0.576,59.648-21.888,114.368-57.152,157.184C 513.664,446.944, 473.344,388.704, 374.08,348.192z M 411.552,259.04
	c 33.024-90.72, 46.40-164.544, 48.928-179.584c 56.48,38.112, 96.576,98.56, 107.744,168.672C 563.264,249.76, 492.832,272.064, 411.552,259.04z" data-tags="dribbble, social" />
<glyph unicode="&#xe033;" d="M 328.288,288.544c 1.088,0.352, 2.176,0.672, 3.328,1.024c-2.656,5.952-5.60,12.064-8.928,18.656
	c-60.16-17.792-117.76-17.984-128.032-17.856C 194.592,289.60, 194.56,288.768, 194.56,288.00c0.00-30.24, 10.88-59.328, 30.656-82.144
	C 231.84,216.512, 266.752,268.64, 328.288,288.544z M 401.76,383.072C 379.008,402.656, 350.048,413.408, 320.00,413.408c-9.056,0.00-18.176-0.992-27.168-2.976
	c 6.528-8.832, 26.624-36.704, 45.472-71.136C 379.328,355.04, 397.888,377.792, 401.76,383.072z M 243.968,188.384C 266.016,171.456, 292.288,162.56, 320.00,162.56
	c 16.576,0.00, 32.64,3.20, 47.84,9.44c-2.112,12.192-9.44,49.28-26.304,93.472C 273.632,241.472, 248.032,196.32, 243.968,188.384z M 310.56,330.72
	C 291.104,365.024, 270.848,393.28, 265.312,400.864c-34.144-16.608-59.264-48.224-67.616-85.12l 0.512,0.00 C 211.20,315.744, 257.344,316.832, 310.56,330.72z M 368.448,272.064
	c 14.88-41.312, 21.76-75.712, 23.68-86.688c 27.264,19.20, 45.888,48.672, 51.488,81.344c-5.568,1.664-25.632,7.104-50.944,7.104
	C 384.448,273.824, 376.256,273.216, 368.448,272.064z M 320.00,595.20c-169.664,0.00-307.20-137.536-307.20-307.20s 137.536-307.20, 307.20-307.20c 169.696,0.00, 307.20,137.536, 307.20,307.20
	S 489.696,595.20, 320.00,595.20z M 320.00,137.664c-82.88,0.00-150.336,67.424-150.336,150.336S 237.088,438.336, 320.00,438.336c 82.944,0.00, 150.40-67.424, 150.40-150.336
	S 402.944,137.664, 320.00,137.664z M 349.504,317.568c 2.784-5.696, 5.344-11.392, 7.744-16.96c 0.736-1.824, 1.568-3.616, 2.304-5.44
	c 8.864,1.056, 18.304,1.60, 28.192,1.60c 27.328,0.00, 50.048-4.00, 57.632-5.504c-0.672,27.20-10.304,53.632-27.264,74.848
	C 412.992,359.488, 391.936,335.296, 349.504,317.568z" data-tags="dribbble, social" />
<glyph unicode="&#xe034;" d="M 251.968,205.536c-13.408-12.032-39.168-36.16-82.048-36.16c-50.592,0.00-99.328,44.352-99.328,115.296c0.00,90.912, 58.24,120.224, 102.976,120.224
		c 64.512,0.00, 78.656-38.912, 96.224-92.864l 23.456-73.92c 23.424-71.648, 67.424-129.28, 194.24-129.28c 90.944,0.00, 152.512,28.064, 152.512,101.952
		c0.00,59.872-33.76,90.912-96.768,105.696L 496.32,326.784c-32.256,7.392-41.792,20.672-41.792,42.88c0.00,25.12, 19.776,39.904, 52.032,39.904
		c 35.20,0.00, 54.24-13.312, 57.184-45.088l 73.312,8.864C 631.20,439.84, 585.76,467.20, 510.976,467.20c-65.984,0.00-130.464-25.12-130.464-105.664
		c0.00-50.24, 24.192-82.016, 84.992-96.80l 49.888-11.808c 37.376-8.864, 49.856-24.416, 49.856-45.856c0.00-27.328-26.40-38.40-76.256-38.40
		c-74.016,0.00-111.232,39.168-128.80,93.088l-24.224,73.92C 305.184,431.712, 268.832,467.20, 171.328,467.20C 84.416,467.20,0.00,398.464,0.00,281.728
		C0.00,169.376, 81.024,108.80, 166.208,108.80c 61.60,0.00, 92.864,21.632, 108.16,32.736L 251.968,205.536z" data-tags="lastfm, social" />
<glyph unicode="&#xe035;" d="M 320.00,595.20c-169.664,0.00-307.20-137.536-307.20-307.20s 137.536-307.20, 307.20-307.20s 307.20,137.536, 307.20,307.20S 489.664,595.20, 320.00,595.20z M 404.64,197.44
	c-64.064,0.00-86.304,29.12-98.112,65.344L 294.624,300.128C 285.76,327.36, 278.592,347.072, 246.016,347.072c-22.592,0.00-52.032-14.816-52.032-60.736
	c0.00-35.84, 24.64-58.24, 50.176-58.24c 21.696,0.00, 34.688,12.192, 41.472,18.272l 11.328-32.352c-7.712-5.60-23.488-16.576-54.624-16.576
	c-43.04,0.00-84.00,30.624-84.00,87.36c0.00,59.008, 42.656,93.728, 86.592,93.728c 49.248,0.00, 67.584-17.952, 83.168-66.464l 12.224-37.312
	c 8.896-27.296, 27.68-47.072, 65.088-47.072c 25.184,0.00, 38.528,5.632, 38.528,19.392c0.00,10.848-6.304,18.688-25.184,23.168l-25.184,5.984
	c-30.752,7.456-42.976,23.52-42.976,48.928c0.00,40.672, 32.608,53.376, 65.952,53.376c 37.792,0.00, 60.736-13.824, 63.68-47.392l-37.024-4.512
	c-1.472,16.064-11.104,22.784-28.896,22.784c-16.288,0.00-26.272-7.456-26.272-20.16c0.00-11.232, 4.80-17.952, 21.12-21.664l 23.68-5.216
	c 31.84-7.456, 48.896-23.168, 48.896-53.408C 481.696,211.616, 450.56,197.44, 404.64,197.44z" data-tags="lastfm, social" />
<glyph unicode="&#xe036;" d="M 486.40,288.00c0.00-91.904-74.528-166.40-166.40-166.40c-91.904,0.00-166.40,74.496-166.40,166.40c0.00,10.944, 1.088,21.632, 3.136,32.00L 44.80,320.00 l0.00-221.184 
	c0.00-47.488, 38.464-86.016, 86.016-86.016l 378.368,0.00 c 47.488,0.00, 86.016,38.496, 86.016,86.016L 595.20,320.00 l-111.904,0.00 C 485.312,309.632, 486.40,298.944, 486.40,288.00z M 509.184,563.20
	L 130.816,563.20 C 83.296,563.20, 44.80,524.672, 44.80,477.184L 44.80,384.00 l 139.328,0.00 C 214.24,426.56, 263.872,454.40, 320.00,454.40s 105.76-27.84, 135.872-70.40L 595.20,384.00 L 595.20,477.184 
	C 595.20,524.672, 556.672,563.20, 509.184,563.20z M 551.264,456.96c0.00-8.48-6.912-15.36-15.36-15.36l-46.048,0.00 c-8.448,0.00-15.36,6.912-15.36,15.36L 474.496,503.04 
	c0.00,8.48, 6.944,15.36, 15.36,15.36l 46.048,0.00 c 8.48,0.00, 15.36-6.912, 15.36-15.36L 551.264,456.96 z M 422.40,288.00c0.00,56.576-45.856,102.40-102.40,102.40S 217.60,344.576, 217.60,288.00
	s 45.856-102.40, 102.40-102.40S 422.40,231.424, 422.40,288.00z" data-tags="instagram, social" />
<glyph unicode="&#xe037;" d="M 195.488,579.136L 12.80,465.344l 125.152-104.928L 320.00,478.656L 195.488,579.136z M 430.464,96.192c-3.264,0.00-6.496,1.12-9.12,3.328L 320.00,183.552
	l-101.344-84.064c-2.624-2.176-5.888-3.328-9.12-3.328c-2.72,0.00-5.44,0.736-7.808,2.304l-75.072,49.12l0.00-28.992 L 320.00-3.136l 193.344,121.76
	l0.00,28.992 l-75.072-49.12C 435.904,96.928, 433.184,96.192, 430.464,96.192z M 627.20,465.344l-182.688,113.792L 320.00,478.656l 182.016-118.208L 627.20,465.344z
	 M 320.00,246.688l 112.864-93.696l 180.544,118.016l-111.36,89.408L 320.00,246.688z M 207.136,152.992L 320.00,246.688L 137.984,360.448l-111.36-89.44L 207.136,152.992z" data-tags="dropbox, social" />
<glyph unicode="&#xe038;" d="M 554.848,470.144c0.00,36.80-55.424,40.896-55.424,40.896l-130.208,8.192c0.00,0.00-2.784,35.456-29.12,47.744
		c-26.304,12.256-55.232,8.544-76.00,8.32S 238.368,548.544, 238.368,523.52s 0.48-53.824, 0.48-72.00c0.00-32.512-14.304-46.368-50.112-46.368L 114.912,405.152 
		C 94.272,406.496, 78.176,403.104, 78.176,386.40c0.00-16.672, 24.32-159.104, 57.664-191.968c 19.36-19.072, 137.728-32.448, 162.656-32.448s 16.64,73.632, 23.552,73.632
		s 14.56-41.60, 53.824-51.328c 39.264-9.792, 91.68-7.968, 94.464-35.904c 3.616-36.864, 6.912-84.576-17.344-87.968l-54.88-2.176
		c-37.632,2.72-27.552,43.808-10.944,43.808s 24.928,0.672, 24.928,0.672l 2.08,44.992c0.00,0.00-86.176,10.176-89.856-47.968
		c-3.328-53.12, 5.792-78.176, 12.48-83.616C 343.52,10.624, 355.104,0.00, 460.64,0.00C 609.344,0.00, 554.848,433.376, 554.848,470.144z M 494.08,277.728
		C 488.256,271.52, 467.136,288.00, 446.976,288.00c-20.192,0.00-41.984-10.688-47.104-3.68c-5.088,7.04, 4.704,63.744, 42.72,63.744
		S 499.936,283.968, 494.08,277.728zM 185.696,474.688c0.00,7.264, 1.888,95.488, 1.888,95.488L 75.392,460.128c0.00,0.00, 77.504,0.00, 92.704,0.00C 183.36,460.128, 185.696,467.392, 185.696,474.688z" data-tags="evernote, social" />
<glyph unicode="&#xe039;" d="M 597.472,222.784c 4.256,19.968, 6.496,40.704, 6.496,62.016c0.00,159.552-125.728,288.928-280.832,288.928c-16.352,0.00-32.416-1.472-48.00-4.224
	C 249.984,585.76, 220.32,595.20, 188.448,595.20C 98.528,595.20, 25.60,520.16, 25.60,427.616c0.00-30.912, 8.192-59.872, 22.40-84.736
	c-3.712-18.752-5.696-38.176-5.696-58.08c0.00-159.552, 125.76-288.928, 280.832-288.928c 17.568,0.00, 34.784,1.664, 51.424,4.832
	c 22.912-12.672, 49.12-19.872, 76.96-19.872c 89.984,0.00, 162.88,75.008, 162.88,167.552C 614.40,175.104, 608.288,200.384, 597.472,222.784z M 467.168,146.688
	c-12.992-18.912-32.192-33.92-57.056-44.544c-24.64-10.528-54.112-15.872-87.744-15.872c-40.352,0.00-74.144,7.296-100.544,21.728
	c-18.88,10.464-34.432,24.672-46.24,42.176c-11.936,17.728-17.984,35.296-17.984,52.224c0.00,10.592, 3.936,19.776, 11.712,27.296
	c 7.712,7.424, 17.568,11.232, 29.312,11.232c 9.632,0.00, 17.984-2.976, 24.736-8.832c 6.464-5.664, 12.00-14.016, 16.448-24.736
	c 4.992-11.744, 10.40-21.632, 16.128-29.44c 5.504-7.488, 13.44-13.824, 23.552-18.752c 10.176-4.928, 23.904-7.456, 40.80-7.456
	c 23.20,0.00, 42.24,5.088, 56.544,15.168c 14.016,9.856, 20.80,21.632, 20.80,36.064c0.00,11.392-3.552,20.384-10.848,27.392
	c-7.648,7.328-17.76,13.056-29.984,16.992c-12.768,4.096-30.112,8.512-51.52,13.12c-29.152,6.432-53.92,14.048-73.60,22.656
	C 211.584,291.872, 195.328,304.096, 183.456,319.392c-12.064,15.488-18.176,35.008-18.176,57.92c0.00,21.824, 6.40,41.504, 19.072,58.464
	c 12.576,16.832, 30.88,29.952, 54.496,38.944C 262.176,483.584, 289.92,488.096, 321.28,488.096c 25.088,0.00, 47.136-3.008, 65.536-8.864
	c 18.496-5.952, 34.112-13.952, 46.368-23.808c 12.352-9.952, 21.536-20.576, 27.328-31.552c 5.824-11.168, 8.768-22.24, 8.768-32.96
	c0.00-10.336-3.872-19.712-11.52-27.904c-7.68-8.224-17.408-12.384-28.832-12.384c-10.368,0.00-18.528,2.624-24.192,7.744
	c-5.248,4.768-10.72,12.256-16.736,22.944c-7.008,13.728-15.488,24.512-25.184,32.096c-9.472,7.392-25.216,11.168-46.912,11.168
	c-20.128,0.00-36.512-4.16-48.672-12.384C 255.488,404.256, 249.824,395.20, 249.824,384.48c0.00-6.592, 1.824-12.096, 5.60-16.80
	c 4.00-5.024, 9.60-9.44, 16.736-13.088c 7.36-3.808, 14.976-6.848, 22.592-9.024c 7.808-2.208, 20.896-5.504, 38.88-9.792
	c 22.72-5.024, 43.584-10.656, 62.048-16.704c 18.72-6.144, 34.88-13.76, 48.064-22.56c 13.44-9.024, 24.096-20.608, 31.648-34.40
	c 7.552-13.888, 11.392-31.008, 11.392-50.88C 486.816,187.36, 480.224,165.696, 467.168,146.688z" data-tags="skype, social" />
<glyph unicode="&#xe03a;" d="M 389.248,292.704c-7.36,4.928-16.448,9.184-26.88,12.672C 352.00,308.768, 340.32,311.936, 327.584,314.72C 317.536,317.12, 310.208,318.976, 305.824,320.224
	C 301.568,321.44, 297.312,323.136, 293.184,325.28C 289.184,327.328, 286.016,329.792, 283.808,332.608C 281.696,335.264, 280.672,338.304, 280.672,342.016
	c0.00,6.016, 3.20,11.104, 9.76,15.52c 6.816,4.608, 16.00,6.912, 27.264,6.912c 12.128,0.00, 20.96-2.08, 26.272-6.208
	c 5.44-4.288, 10.208-10.304, 14.08-17.984c 3.424-6.016, 6.432-10.176, 9.44-12.864c 3.136-2.88, 7.68-4.352, 13.504-4.352
	c 6.432,0.00, 11.872,2.336, 16.192,6.944c 4.256,4.608, 6.432,9.856, 6.432,15.616c0.00,6.016-1.696,12.224-4.928,18.464
	c-3.20,6.144-8.384,12.128-15.264,17.696c-6.88,5.504-15.616,9.984-25.984,13.312c-10.304,3.328-22.656,4.96-36.704,4.96
	c-17.568,0.00-33.088-2.496-46.144-7.456C 261.312,387.52, 251.04,380.192, 244.00,370.752C 236.928,361.248, 233.344,350.208, 233.344,337.984
	c0.00-12.80, 3.424-23.744, 10.176-32.416c 6.656-8.608, 15.744-15.424, 27.008-20.384c 11.04-4.80, 24.896-9.088, 41.216-12.672
	c 12.00-2.56, 21.728-5.024, 28.864-7.328c 6.848-2.176, 12.544-5.408, 16.768-9.536c 4.064-3.936, 6.048-8.928, 6.048-15.328
	c0.00-8.064-3.808-14.656-11.648-20.192c-8.00-5.632-18.656-8.48-31.68-8.48c-9.44,0.00-17.152,1.408-22.848,4.192
	c-5.664,2.752-10.112,6.272-13.184,10.464c-3.20,4.384-6.24,9.92-9.024,16.512c-2.496,6.016-5.60,10.688-9.216,13.856
	c-3.808,3.296-8.448,4.96-13.856,4.96c-6.592,0.00-12.096-2.112-16.416-6.272c-4.352-4.224-6.56-9.344-6.56-15.296
	c0.00-9.472, 3.392-19.328, 10.048-29.216c 6.624-9.856, 15.328-17.792, 25.92-23.648c 14.784-8.064, 33.728-12.16, 56.288-12.16
	c 18.816,0.00, 35.328,3.008, 49.152,8.864c 13.952,5.984, 24.672,14.368, 31.936,24.928c 7.328,10.656, 11.008,22.816, 11.008,36.128
	c0.00,11.168-2.112,20.704-6.368,28.512C 402.752,281.184, 396.80,287.68, 389.248,292.704z M 320.00,595.20c-169.664,0.00-307.20-137.536-307.20-307.20s 137.536-307.20, 307.20-307.20
	c 169.696,0.00, 307.20,137.536, 307.20,307.20S 489.696,595.20, 320.00,595.20z M 393.632,115.968c-15.552,0.00-30.24,4.032-43.104,11.136
	c-9.344-1.792-18.944-2.72-28.80-2.72c-86.848,0.00-157.28,72.48-157.28,161.824c0.00,11.168, 1.088,22.016, 3.20,32.544
	C 159.68,332.672, 155.104,348.864, 155.104,366.176c0.00,51.808, 40.832,93.856, 91.20,93.856c 17.856,0.00, 34.464-5.28, 48.544-14.40C 303.552,447.20, 312.544,448.00, 321.728,448.00
	c 86.848,0.00, 157.28-72.48, 157.28-161.824c0.00-11.904-1.248-23.52-3.616-34.72c 6.048-12.576, 9.44-26.688, 9.44-41.696
	C 484.80,157.984, 444.00,115.968, 393.632,115.968z" data-tags="skype, social" />
<glyph unicode="&#xe03b;" d="M 270.976,580.32C 131.744,556.96, 25.60,435.936, 25.60,290.048c0.00-72.512, 26.272-138.848, 69.728-190.112c 103.072,49.888, 175.104,162.72, 175.648,294.08L 270.976,580.32 z
	 M 320.032,215.744c-18.336-75.936-73.12-140.832-141.376-183.968c 41.952-23.008, 90.112-36.096, 141.344-36.096c 51.264,0.00, 99.392,13.088, 141.376,36.128
	C 393.12,74.944, 338.368,139.808, 320.032,215.744z M 369.088,395.424c0.00-131.968, 72.192-245.408, 175.584-295.488c 43.456,51.328, 69.728,117.632, 69.728,190.112
	c0.00,145.856-106.08,266.88-245.312,290.24L 369.088,395.424 z" data-tags="renren, social" />
<glyph unicode="&#xe03c;" d="M 185.856,549.696C 86.976,498.848, 25.60,398.624, 25.60,287.392c0.00-20.288, 2.56-40.864, 7.072-61.376L 287.04,457.632
	C 259.904,482.304, 188.608,547.168, 185.856,549.696z M 441.376,555.968C 402.944,573.44, 362.112,582.40, 319.968,582.40c-29.888,0.00-59.36-4.96-88.00-14.112
	l 209.376-190.432L 441.344,555.968 z M 486.144,530.016l0.00-339.776 l 111.52,0.00 c 10.976,31.424, 16.704,64.096, 16.704,97.152C 614.40,384.416, 565.632,475.296, 486.144,530.016z
	 M 46.784,178.304c 21.568-54.208, 59.456-100.832, 107.776-133.888l0.00,232.00 l-65.408-59.552C 66.816,196.544, 48.16,179.552, 46.784,178.304z M 199.36,18.432
	c 29.92-13.504, 61.216-21.856, 93.44-24.832l 54.048,0.00 c 96.608,9.024, 183.264,66.208, 230.368,151.84L 199.36,145.44 L 199.36,18.432 z" data-tags="picasa, social" />
<glyph unicode="&#xe03d;" d="M 21.504,177.408L 32.00,222.208l-10.496,46.304c-0.288,1.376-2.912,2.432-6.144,2.432c-3.264,0.00-5.888-1.056-6.144-2.432L0.00,222.208
	l 9.248-44.80c 0.256-1.408, 2.88-2.432, 6.144-2.432C 18.592,174.976, 21.216,176.00, 21.504,177.408z M 87.104,152.544L 96.00,221.792L 87.104,328.896
	C 86.848,331.648, 83.52,333.792, 79.488,333.792c-4.064,0.00-7.392-2.112-7.584-4.864L 64.00,221.792l 7.904-69.248c 0.192-2.72, 3.52-4.832, 7.584-4.832
	C 83.52,147.68, 86.848,149.824, 87.104,152.544z M 152.576,153.664L 160.00,221.76L 152.576,364.384c-0.192,3.328-4.16,5.984-8.992,5.984
	c-4.864,0.00-8.832-2.624-8.992-5.984L 128.00,221.76l 6.592-68.128c 0.16-3.328, 4.128-5.952, 8.992-5.952
	C 148.416,147.68, 152.384,150.304, 152.576,153.664z M 217.92,154.688L 224.00,221.728l-6.08,143.68C 217.76,369.376, 213.28,372.512, 207.68,372.512
	c-5.632,0.00-10.112-3.136-10.272-7.104L 192.00,221.728l 5.44-67.04c 0.096-3.936, 4.608-7.072, 10.24-7.072C 213.28,147.616, 217.76,150.688, 217.92,154.688z
	 M 283.20,155.52L 288.00,221.696L 283.20,386.432C 283.104,390.976, 277.952,394.656, 271.744,394.656c-6.208,0.00-11.328-3.68-11.424-8.224L 256.00,221.76
	c0.00-0.096, 4.32-66.208, 4.32-66.208c 0.096-4.48, 5.216-8.16, 11.424-8.16C 277.952,147.36, 283.104,151.008, 283.20,155.52z M 328.896,147.328
	c 0.192,0.00, 227.168-0.128, 228.64-0.128c 45.568,0.00, 82.464,35.712, 82.464,79.776s-36.896,79.776-82.464,79.776c-11.328,0.00-22.08-2.208-31.904-6.208
	C 519.072,372.416, 456.704,428.80, 380.672,428.80c-18.592,0.00-36.736-3.52-52.736-9.536C 321.728,416.928, 320.032,414.56, 320.00,409.92l0.00-253.152 
	C 320.064,151.872, 323.968,147.808, 328.896,147.328z" data-tags="soundcloud, social" />
<glyph unicode="&#xe03e;" d="M 258.272,310.336c0.00,0.00, 60.576,4.704, 60.576,78.72S 269.28,499.20, 206.528,499.20L0.00,499.20 l0.00-413.632 l 206.528,0.00 c0.00,0.00, 126.048-4.128, 126.048,122.048
	C 332.608,207.616, 338.08,310.336, 258.272,310.336z M 91.008,425.696l 115.52,0.00 c0.00,0.00, 28.064,0.00, 28.064-43.04c0.00-43.04-16.512-49.28-35.264-49.28L 91.008,333.376 L 91.008,425.696 z
	 M 200.672,159.072L 91.008,159.072 l0.00,110.56 l 115.52,0.00 c0.00,0.00, 41.856,0.576, 41.856-56.80C 248.384,164.448, 217.12,159.424, 200.672,159.072z M 500.736,393.952
	c-152.64,0.00-152.512-158.88-152.512-158.88s-10.464-158.112, 152.512-158.112c0.00,0.00, 135.808-8.128, 135.808,110.016l-69.824,0.00 c0.00,0.00, 2.304-44.512-63.648-44.512
	c0.00,0.00-69.856-4.864-69.856,71.936l 205.664,0.00 C 638.912,214.368, 661.408,393.952, 500.736,393.952z M 562.848,269.60l-130.368,0.00 c0.00,0.00, 8.544,63.776, 69.856,63.776
	C 563.584,333.376, 562.848,269.60, 562.848,269.60z M 579.136,474.848L 415.36,474.848 l0.00-50.944 l 163.744,0.00 L 579.104,474.848 z" data-tags="behance, social" />
<glyph unicode="&#xe03f;" d="M 80.00,288.005c0.00-92.516, 55.201-172.48, 135.269-210.361L 100.782,383.134C 87.465,354.066, 80.00,321.895, 80.00,288.005zM 482.017,299.795c0.00,28.896-10.659,48.898-19.784,64.464c-12.161,19.262-23.575,35.559-23.575,54.822
			c0.00,21.484, 16.729,41.485, 40.304,41.485c 1.065,0.00, 2.075-0.128, 3.11-0.189C 439.375,498.484, 382.485,521.75, 320.005,521.75
			c-83.85,0.00-157.616-41.904-200.528-105.355c 5.631-0.176, 10.941-0.284, 15.445-0.284c 25.096,0.00, 63.963,2.97, 63.963,2.97
			c 12.931,0.739, 14.458-17.771, 1.536-19.264c0.00,0.00-13.006-1.48-27.47-2.219l 87.396-253.191l 52.527,153.41l-37.389,99.781
			c-12.93,0.74-25.174,2.219-25.174,2.219c-12.939,0.745-11.42,20.001, 1.524,19.264c0.00,0.00, 39.625-2.97, 63.209-2.97
			c 25.091,0.00, 63.969,2.97, 63.969,2.97c 12.939,0.739, 14.463-17.771, 1.529-19.264c0.00,0.00-13.021-1.482-27.468-2.219L 439.813,146.338
			l 23.945,77.895C 474.12,256.576, 482.017,279.795, 482.017,299.795zM 324.214,267.56l-72.016-203.786c 21.51-6.161, 44.246-9.524, 67.805-9.524c 27.948,0.00, 54.752,4.699, 79.699,13.25
			c-0.636,1.001-1.234,2.065-1.719,3.221L 324.214,267.56zM 530.601,400.142c 1.032-7.444, 1.618-15.429, 1.618-24.036c0.00-23.706-4.558-50.373-18.251-83.719l-73.304-206.42
			C 512.015,126.485, 560.00,201.772, 560.00,288.004C 560.00,328.647, 549.338,366.854, 530.601,400.142zM 320.00,608.00C 143.269,608.00,0.00,464.731,0.00,288.00s 143.269-320.00, 320.00-320.00s 320.00,143.269, 320.00,320.00S 496.731,608.00, 320.00,608.00z M 320.00,8.00
		C 165.36,8.00, 40.00,133.36, 40.00,288.00S 165.36,568.00, 320.00,568.00s 280.00-125.36, 280.00-280.00S 474.64,8.00, 320.00,8.00z" data-tags="wordpress, social, cms" />
<glyph unicode="&#xe040;" d="M 324.214,267.56 L 397.983,70.721 C 398.469,69.565 399.065,68.502 399.701,67.50 C 374.756,58.949 347.949,54.25 320.002,54.25 C 296.444,54.25 273.707,57.612 252.198,63.774 L 324.214,267.56 ZM 560.00,288.004 C 560.00,201.772 512.015,126.485 440.662,85.967 L 513.966,292.387 C 527.661,325.734 532.219,352.40 532.219,376.106 C 532.219,384.714 531.632,392.699 530.601,400.142 C 549.338,366.854 560.00,328.647 560.00,288.004 ZM 80.00,288.005 C 80.00,321.895 87.465,354.066 100.782,383.134 L 215.269,77.644 C 135.201,115.525 80.00,195.489 80.00,288.005 ZM 119.477,416.395 C 162.389,479.846 236.155,521.75 320.005,521.75 C 382.485,521.75 439.375,498.484 482.072,460.377 C 481.037,460.439 480.029,460.566 478.963,460.566 C 455.387,460.566 438.659,440.565 438.659,419.081 C 438.659,399.817 450.072,383.521 462.234,364.259 C 471.359,348.692 482.017,328.691 482.017,299.795 C 482.017,279.794 474.12,256.576 463.757,224.232 L 439.813,146.338 L 353.075,397.599 C 367.522,398.335 380.543,399.817 380.543,399.817 C 393.476,401.31 391.954,419.82 379.014,419.081 C 379.014,419.081 340.136,416.111 315.045,416.111 C 291.461,416.111 251.836,419.081 251.836,419.081 C 238.893,419.819 237.374,400.562 250.313,399.817 C 250.313,399.817 262.556,398.339 275.486,397.599 L 312.875,297.817 L 260.347,144.407 L 172.951,397.599 C 187.415,398.338 200.421,399.817 200.421,399.817 C 213.343,401.31 211.816,419.82 198.885,419.081 C 198.885,419.081 160.019,416.111 134.923,416.111 C 130.419,416.111 125.109,416.219 119.477,416.395 ZM 532.50,608.00L 107.50,608.00 C 48.375,608.00,0.00,559.625,0.00,500.50l0.00-425.00 c0.00-59.125, 48.375-107.50, 107.50-107.50l 425.00,0.00 c 59.125,0.00, 107.50,48.375, 107.50,107.50L 640.00,500.50 C 640.00,559.625, 591.625,608.00, 532.50,608.00z M 600.00,288.00
		c0.00-154.64-125.36-280.00-280.00-280.00S 40.00,133.36, 40.00,288.00S 165.36,568.00, 320.00,568.00S 600.00,442.64, 600.00,288.00z" data-tags="wordpress, social, cms" />
<glyph unicode="&#xe041;" d="M 320.00,608.00C 143.269,608.00,0.00,464.731,0.00,288.00s 143.269-320.00, 320.00-320.00s 320.00,143.269, 320.00,320.00S 496.731,608.00, 320.00,608.00z M 200.00,128.00
	c-22.091,0.00-40.00,17.909-40.00,40.00s 17.909,40.00, 40.00,40.00s 40.00-17.909, 40.00-40.00S 222.091,128.00, 200.00,128.00z M 310.00,128.00c0.00,82.71-67.29,150.00-150.00,150.00l0.00,60.00 
	c 115.795,0.00, 210.00-94.205, 210.00-210.00L 310.00,128.00 z M 430.00,128.00c0.00,72.119-28.085,139.923-79.081,190.919C 299.923,369.915, 232.12,398.00, 160.00,398.00l0.00,60.00 
	c 88.146,0.00, 171.016-34.326, 233.346-96.655C 455.674,299.016, 490.00,216.146, 490.00,128.00L 430.00,128.00 z" data-tags="feed, rss, social" />
<glyph unicode="&#xe042;" d="M 85.184,138.669c-46.998,0.00-85.183-38.334-85.183-85.047c0.00-46.971, 38.188-84.876, 85.183-84.876
		c 47.166,0.00, 85.309,37.905, 85.309,84.876C 170.491,100.335, 132.353,138.669, 85.184,138.669zM 0.098,390.544l0.00-122.661 c 79.865,0.00, 154.974-31.233, 211.536-87.82c 56.49-56.449, 87.676-131.898, 87.676-212.063l 123.201,0.00 
		C 422.51,201.013, 232.96,390.544, 0.098,390.544zM 0.242,608.00l0.00-122.722 c 284.864,0.00, 516.722-232.084, 516.722-517.278L 640.00-32.00 C 640.00,320.794, 352.966,608.00, 0.242,608.00z" data-tags="feed, rss, social" />
<glyph unicode="&#xe043;" d="M 320.00,608.00C 143.269,608.00,0.00,464.731,0.00,288.00s 143.269-320.00, 320.00-320.00s 320.00,143.269, 320.00,320.00S 496.731,608.00, 320.00,608.00z M 160.00,448.00l 320.00,0.00 
	c 5.711,0.00, 11.253-1.226, 16.34-3.539L 320.00,238.731L 143.66,444.462C 148.748,446.773, 154.289,448.00, 160.00,448.00z M 120.00,168.00L 120.00,408.00 
	c0.00,0.838, 0.035,1.67, 0.088,2.50l 117.29-136.839L 121.379,157.663C 120.476,160.998, 120.00,164.466, 120.00,168.00z M 480.00,128.00L 160.00,128.00 
	c-3.534,0.00-7.001,0.476-10.337,1.38l 113.824,113.824L 320.00,177.267l 56.515,65.934l 113.823-113.825C 487.00,128.476, 483.534,128.00, 480.00,128.00z
	 M 520.00,168.00c0.00-3.534-0.476-7.00-1.379-10.337l-116.00,115.999L 519.913,410.50c 0.053-0.83, 0.088-1.663, 0.088-2.50L 520.00,168.00 z" data-tags="mail, contact, support, newsletter, letter, email, envelop, social" />
<glyph unicode="&#xe044;" d="M 533.339,608.00L 106.679,608.00 C 48.008,608.00,0.00,559.994,0.00,501.319l0.00-426.639 C0.00,15.969, 48.008-32.00, 106.679-32.00l 426.66,0.00 
	C 592.011-32.00, 640.00,15.969, 640.00,74.681L 640.00,501.319 C 640.00,559.994, 592.011,608.00, 533.339,608.00z M 533.339,528.00c 4.993,0.00, 9.716-1.459, 13.762-3.964
	L 320.00,336.284L 92.904,524.034C 96.953,526.54, 101.681,528.00, 106.679,528.00L 533.339,528.00 z M 106.679,48.00c-1.202,0.00-2.387,0.091-3.553,0.255
	l 141.016,195.604l-18.285,18.284L 80.00,116.286L 80.00,498.247 L 320.00,208.00L 560.00,498.246l0.00-381.96 L 414.143,262.143l-18.284-18.284l 141.017-195.605
	c-1.161-0.163-2.341-0.254-3.539-0.254L 106.679,48.00 z" data-tags="mail, contact, support, newsletter, letter, email, envelop, social" />
<glyph unicode="&#xe045;" d="M 520.00,528.00L 120.00,528.00 c-66.00,0.00-120.00-54.00-120.00-120.00l0.00-240.00 c0.00-66.00, 54.00-120.00, 120.00-120.00l 400.00,0.00 c 66.00,0.00, 120.00,54.00, 120.00,120.00L 640.00,408.00 C 640.00,474.00, 586.00,528.00, 520.00,528.00z
	 M 240.00,128.00L 240.00,448.00 l 200.00-160.00L 240.00,128.00z" data-tags="youtube, social" />
<glyph unicode="&#xe046;" d="M 520.00,528.00L 120.00,528.00 c-66.00,0.00-120.00-54.00-120.00-120.00l0.00-240.00 c0.00-66.00, 54.00-120.00, 120.00-120.00l 400.00,0.00 c 66.00,0.00, 120.00,54.00, 120.00,120.00L 640.00,408.00 C 640.00,474.00, 586.00,528.00, 520.00,528.00z
		 M 600.00,168.00c0.00-21.236-8.359-41.289-23.534-56.466C 561.289,96.359, 541.237,88.00, 520.00,88.00L 120.00,88.00 c-21.236,0.00-41.289,8.359-56.465,23.534
		C 48.359,126.711, 40.00,146.764, 40.00,168.00L 40.00,408.00 c0.00,21.236, 8.359,41.289, 23.535,56.465S 98.764,488.00, 120.00,488.00l 400.00,0.00 
		c 21.236,0.00, 41.289-8.359, 56.466-23.535C 591.643,449.289, 600.00,429.236, 600.00,408.00L 600.00,168.00 zM 240.00,128.00L 440.00,288.00L 240.00,448.00 	z" data-tags="youtube, social" />
<glyph unicode="&#xe047;" d="M 306.62,212.80c-0.52,0.36-60.68,101.50-60.88,102.80c-12.44,27.18-22.48,54.98-1.56,67.32l-86.82,146.40
			C 134.86,512.50, 71.22,421.22, 190.34,214.36c 125.48-218.00, 244.90-208.94, 268.84-194.18l-84.60,142.90
			C 354.58,151.32, 337.74,170.70, 306.62,212.80z M 517.24,75.66l 0.02,0.12c0.00,0.00-66.06,111.32-66.10,111.36
			c-5.24,8.82-16.50,11.60-25.28,6.48l-40.48-23.94l 84.84-143.32c0.00,0.00, 40.48,23.82, 40.46,23.90l 0.08,0.00 
			C 520.08,55.78, 522.22,67.18, 517.24,75.66z M 295.72,413.28L 295.72,413.36 c 9.30,5.50, 11.48,16.90, 6.50,25.30l 0.04,0.12
			c0.00,0.00-67.96,114.58-68.00,114.60c-5.22,8.86-16.52,11.60-25.26,6.48L 168.52,535.92l 86.72-146.48C 255.24,389.44, 295.70,413.22, 295.72,413.28
			z" data-tags="phone, contact" />
<glyph unicode="&#xe048;" d="M 42.52,584.24c 25.56,25.62, 102.82,29.90, 103.40,16.34
	c 0.58-13.54, 69.58-163.82, 70.18-177.38c 0.60-13.54-45.48-59.74-58.96-73.26c-13.36-13.38, 90.16-130.66, 92.12-132.88
	c 2.20-1.98, 119.20-105.74, 132.56-92.34c 13.48,13.52, 59.58,59.70, 73.06,59.10c 13.52-0.58, 163.46-69.74, 176.98-70.36
	c 13.52-0.58, 9.26-78.00-16.30-103.64c-21.86-21.90-135.04-101.42-331.84,40.58c-21.58,12.44-55.76,40.98-107.60,92.92
	c-0.02,0.02-0.06,0.06-0.10,0.08c-0.04,0.06-0.08,0.08-0.12,0.12s-0.08,0.08-0.12,0.12
	c-0.02,0.04-0.06,0.08-0.08,0.10c-51.80,51.96-80.28,86.24-92.70,107.86C-58.66,448.88, 20.68,562.34, 42.52,584.24z" data-tags="phone, contact" />
<glyph unicode="&#xf095;" d="M 502.857,165.143q0.00-9.643 -3.571-25.179t-7.50-24.464q-7.50-17.857 -43.571-37.857q-33.571-18.214 -66.429-18.214q-9.643,0.00 -18.75,1.25t-20.536,4.464t-16.964,5.179t-19.821,7.321t-17.50,6.429q-35.00,12.50 -62.50,29.643q-45.714,28.214 -94.464,76.964t-76.964,94.464q-17.143,27.50 -29.643,62.50q-1.071,3.214 -6.429,17.50t-7.321,19.821t-5.179,16.964t-4.464,20.536t-1.25,18.75 q0.00,32.857 18.214,66.429q 20.00,36.071 37.857,43.571q 8.929,3.929 24.464,7.50t 25.179,3.571q 5.00,0.00 7.50-1.071q 6.429-2.143 18.929-27.143q 3.929-6.786 10.714-19.286t 12.50-22.679t 11.071-19.107q 1.071-1.429 6.25-8.929t 7.679-12.679t 2.50-10.179q0.00-7.143 -10.179-17.857t-22.143-19.643t-22.143-18.929t-10.179-16.429q0.00-3.214 1.786-8.036t 3.036-7.321t 5.00-8.571t 4.107-6.786q 27.143-48.929 62.143-83.929t 83.929-62.143 q 0.714-0.357 6.786-4.107t 8.571-5.00t 7.321-3.036t 8.036-1.786q 6.429,0.00 16.429,10.179t 18.929,22.143t 19.643,22.143t 17.857,10.179q 5.00,0.00 10.179-2.50t 12.679-7.679t 8.929-6.25q 8.929-5.357 19.107-11.071t 22.679-12.50t 19.286-10.714q 25.00-12.50 27.143-18.929q 1.071-2.50 1.071-7.50z" horiz-adv-x="502.8571428571429" data-tags="phone, contact, talk, voice" />
<glyph unicode="&#xe000;" d="M 40.00,128.00l0.00-120.00 l 120.00,0.00 L 40.00,128.00z M 497.14,568.00L 480.00,550.86L 582.86,448.00L 600.00,465.14L 497.14,568.00z M 457.14,528.00
	L 80.00,150.86L 182.86,48.00L 560.00,425.14L 457.14,528.00z" data-tags="pencil, write, blog" />
<glyph unicode="&#xe010;" d="M 299.40,150.96l0.00,139.58 L 212.72,288.00l 122.08,114.82L 456.88,288.00l-86.68,2.56l0.00-76.86 l0.00-62.74 
	L 299.40,150.96 z M 524.44,322.12c 0.06,1.64, 0.08,3.26, 0.08,4.90c0.00,88.90-71.10,160.98-158.80,160.98c-66.38,0.00-123.26-41.30-146.98-99.96
	c-13.88,10.66-31.34,17.02-50.32,17.02c-45.18,0.00-81.80-36.04-81.80-80.48c0.00-2.20, 0.08-4.38, 0.26-6.54
	C 36.82,304.52,0.00,259.08,0.00,205.08C0.00,140.40, 52.78,88.00, 117.90,88.00l 2.40,0.00 l 399.40,0.00 l 2.42,0.00 C 587.22,88.00, 640.00,140.40, 640.00,205.08
	C 640.00,268.96, 588.48,320.90, 524.44,322.12z" data-tags="cloud-ul, upload" />
<glyph unicode="&#xe049;" d="M 400.00,488.00l-160.00,0.00 L 240.00,528.00 l 160.00,0.00 L 400.00,488.00 z M 120.00-32.00l 400.00,0.00 L 520.00,488.00 l-80.00,0.00 L 440.00,568.00 L 200.00,568.00 l0.00-80.00 L 120.00,488.00 L 120.00-32.00 z M 560.00-32.00c 40.00,0.00, 80.00,40.00, 80.00,80.00L 640.00,408.00 c0.00,40.00-40.00,80.00-80.00,80.00L 560.00-32.00 
	z M0.00,408.00l0.00-360.00 c0.00-40.00, 40.00-80.00, 80.00-80.00L 80.00,488.00 C 40.00,488.00,0.00,448.00,0.00,408.00z" data-tags="suitcase, briefcase, work, travel" />
<glyph unicode="&#xe04a;" d="M 211.90,225.18L 170.60,183.44L 59.28,183.44 c-8.32,0.00-11.46-6.52-6.28-13.04l 149.92-189.36
	c 5.16-6.52, 12.84-5.10, 15.32,2.86l 33.22,106.00l 25.50,28.66l 106.92,108.00l 35.86-217.44C 423.12-11.46, 447.30-32.00, 468.08-32.00l 43.72,0.00 
	L 511.80,355.84 l 127.92,129.50L 640.00,526.44c 0.14,20.82-20.50,41.60-41.28,41.56l-48.78-0.12L 383.86,442.00L0.00,442.00 l0.00-44.50 c0.00-20.84, 20.58-44.64, 41.16-47.64
	l 257.40-37.12L 211.90,225.18" data-tags="airplane, plane, travel" />
<glyph unicode="&#xe04b;" d="M 560.00,355.18L 560.00,448.00 c0.00,80.00-80.00,160.00-160.00,160.00l-160.00,0.00 C 173.46,608.00, 106.90,552.64, 86.40,488.00l 79.20,0.00 
	c 15.04,31.32, 58.06,40.00, 101.08,40.00l 106.66,0.00 C 426.68,528.00, 480.00,514.66, 480.00,461.32L 480.00,368.00 L 80.00,368.00 l0.00-12.82 C 57.04,340.22, 40.00,314.12, 40.00,288.00l0.00-240.00 c0.00-40.00, 40.00-80.00, 80.00-80.00l 400.00,0.00 
	c 40.00,0.00, 80.00,40.00, 80.00,80.00L 600.00,288.00 C 600.00,314.12, 582.96,340.22, 560.00,355.18z M 360.00,128.00c0.00-20.00-20.00-40.00-40.00-40.00s-40.00,20.00-40.00,40.00l0.00,80.00 c0.00,20.00, 20.00,40.00, 40.00,40.00s 40.00-20.00, 40.00-40.00L 360.00,128.00 z" data-tags="unlocked, lock" />
<glyph unicode="&#x2407;" d="M 600.00,8.00l-211.25,0.00 q-10.625-18.125 -28.75-29.063t-40.00-10.938t-40.00,10.938t-28.75,29.063l-211.25,0.00 q-16.875,0.00 -28.438,11.875t-11.563,28.125l0.00,40.00 q 33.125,0.00 56.563,46.875t 23.438,113.125l0.00,80.00 q0.00,88.75 57.188,155.313t 142.813,80.938l0.00,3.75 q0.00,16.875 11.875,28.438t 28.125,11.563t 28.125-11.563t 11.875-28.438l0.00-3.75 q 85.625-14.375 142.813-80.938t 57.188-155.313l0.00-80.00 q0.00-66.25 23.438-113.125
t 56.563-46.875l0.00-40.00 q0.00-16.25 -11.563-28.125t-28.438-11.875z" data-tags="bell" />
<glyph unicode="&#xf36c;" d="M 506.25,141.75q-76.875-76.25 -185.00-90.625l0.00-43.125 l 60.00,0.00 q 8.125,0.00 14.063-5.938t 5.938-14.063t-5.938-14.063t-14.063-5.938l-200.00,0.00 q-8.125,0.00 -14.063,5.938t-5.938,14.063t 5.938,14.063t 14.063,5.938l 60.00,0.00 l0.00,43.125 q-109.375,13.125 -186.875,90.625l-14.375,14.375l 57.50,57.50q-55.625,66.875 -55.625,153.75q0.00,65.00 31.875,120.313t 87.188,87.50t 120.313,32.188q 86.875,0.00 153.75-56.25l 56.875,56.875l 14.375-14.375
q 61.25-61.25 83.125-143.438t0.00-164.375t-83.125-144.063zM 491.25,551.125q-8.125-8.75 -28.125-28.125q 57.50-67.50 57.50-155.625q0.00-65.00 -31.875-120.313t-87.188-87.188t-120.313-31.875q-88.125,0.00 -155.625,57.50q-5.00-5.00 -28.125-28.75q 53.75-46.875 122.813-62.188t 137.50,4.375t 120.00,71.25t 71.25,120.00t 4.375,137.50t-62.188,123.438z" data-tags="globe" />
<glyph unicode="&#xf039;" d="M 202.50,326.75q 34.375-19.375 97.50-47.813t 116.563-55.00t 87.813-51.563q 99.375-73.125 135.625-124.375l-80.00-80.00q-40.00,80.00 -86.25,135.00q-116.25-95.625 -246.25-23.75q-48.125,26.25 -84.375,57.188t-60.313,58.75t-40.313,70.00t-24.688,71.563t-12.50,84.063t-4.688,87.188t-0.625,100.00q 28.75-31.875 68.125-50.625t 80.00-25.313t 84.688-10.00t 86.875-10.00t 82.188-20.00t 75.00-45.313
t 61.25-80.625q 21.875-43.125 21.875-98.125q0.00-35.625 -11.875-67.50q-50.00,30.00 -131.563,70.00t-150.625,75.00t-105.938,62.50q-33.75,25.00 -67.50,69.375q-9.375,11.875 -11.25,7.50q-1.25-4.375 -1.25-36.875q0.00-19.375 31.875-49.375t 90.625-71.875z" data-tags="greenhosting" />
<glyph unicode="&#xe04c;" d="M 40.00,528.00l 560.00,0.00 l0.00-480.00 L 40.00,48.00 L 40.00,528.00 z M 80.00,568.00C 40.00,568.00,0.00,528.00,0.00,488.00l0.00-400.00 c0.00-40.00, 40.00-80.00, 80.00-80.00l 480.00,0.00 c 40.00,0.00, 80.00,40.00, 80.00,80.00L 640.00,488.00 c0.00,40.00-40.00,80.00-80.00,80.00L 80.00,568.00 z
	 M 80.00,428.00c0.00-33.14, 26.86-60.00, 60.00-60.00c 33.12,0.00, 60.00,26.86, 60.00,60.00S 173.12,488.00, 140.00,488.00C 106.86,488.00, 80.00,461.14, 80.00,428.00z M 560.00,448.00c-0.22,1.86-0.46,0.74-0.60-3.00
	C 559.82,446.30, 560.08,447.26, 560.00,448.00z M 560.00,88.00c0.00,0.00-2.18,315.52-0.60,357.00c-9.54-29.26-142.44-156.78-206.00-235.80L 240.00,328.00c0.00,0.00-160.00-210.00-160.00-200.00l0.00-40.00 
	l 200.00,0.00 l 160.00,0.00 L 560.00,88.00 z" data-tags="picture, photo, image" />
<glyph unicode="&#xe04d;" d="M 291.20,255.936L 348.80,255.936 l0.00-64.00 L 640.00,191.936 c0.00,0.00-4.736,142.656-6.40,187.328c-1.568,42.432-16.736,68.672-64.00,68.672l-102.656,0.00 
	c-15.904,29.984-33.024,62.24-38.272,72.16c-10.592,19.968-14.208,23.84-37.76,23.84L 249.088,543.936 c-23.552,0.00-27.168-3.872-37.76-23.84
	C 206.08,510.176, 188.96,477.92, 173.056,447.936L 70.40,447.936 c-47.264,0.00-62.24-26.24-64.00-68.672S0.00,191.936,0.00,191.936l 291.20,0.00 L 291.20,255.936 z M 244.80,482.656
	c 7.328,13.824, 9.856,16.512, 26.112,16.512l 98.144,0.00 c 16.32,0.00, 18.816-2.688, 26.112-16.512c 2.752-5.184, 10.176-19.20, 18.432-34.688L 226.40,447.968 
	C 234.624,463.424, 242.048,477.44, 244.80,482.656z M 348.80,95.936L 291.20,95.936 l0.00,64.00 L 16.00,159.936 c0.00,0.00, 4.00-57.536, 6.40-106.304c 0.992-20.256, 6.944-53.696, 57.568-53.696
	l 480.064,0.00 c 50.624,0.00, 56.448,33.472, 57.568,53.696c 2.784,50.144, 6.40,106.304, 6.40,106.304l-275.20,0.00 L 348.80,95.936 z" data-tags="briefcase, work, portfolio" />
<glyph unicode="&#xe04e;" d="M 240.00,288.00l-40.22-96.80L 320.00,208.00L 240.00,288.00z M 280.00,320.72L 352.74,248.00L 640.00,535.26L 567.26,608.00
	L 280.00,320.72z M 80.00,608.00C 40.00,608.00,0.00,568.00,0.00,528.00l0.00-480.00 c0.00-40.00, 40.00-80.00, 80.00-80.00l 480.00,0.00 c 40.00,0.00, 80.00,40.00, 80.00,80.00L 640.00,440.00 L 560.00,392.00L 560.00,128.00 c0.00-40.00-40.00-80.00-80.00-80.00L 160.00,48.00 c-40.00,0.00-80.00,40.00-80.00,80.00L 80.00,448.00 c0.00,40.00, 40.00,80.00, 80.00,80.00l 240.00,0.00 l 80.00,80.00L 80.00,608.00 z" data-tags="pencil, write, blog" />
<glyph unicode="&#xe002;" d="M 136.128-24.384c 9.792,32.032, 24.64,77.152, 44.512,142.432c 86.592,13.984, 122.432-11.168, 177.44,89.088
	c-44.64-13.952-98.464,25.888-95.552,43.136c 2.88,17.28, 125.216-12.448, 205.28,103.616c-100.928-22.688-133.248,27.296-120.224,34.848
	c 30.048,17.44, 119.264,7.232, 166.816,54.496c 24.512,24.32, 35.968,83.488, 26.016,104.608c-12.00,25.472-85.024,63.488-125.28,59.936
	c-40.256-3.584-103.392-156.448-122.112-155.232S 270.56,520.992, 303.232,583.52c-34.464-15.552-97.60-63.968-117.408-105.344
	c-36.896-76.992, 3.456-253.536-9.472-259.84c-12.96-6.272-56.512,81.056-69.504,120.64c-17.76-60.672-18.176-121.472, 33.728-202.24
	c-19.584-52.992-30.272-113.984-31.904-144.992C 107.904-33.088, 131.808-38.40, 136.128-24.384z" data-tags="feather, write, blog, quill, edit" />
<glyph unicode="&#xe003;" d="M 600.003,427.996L 460.004,567.995L 500.004,607.995L 640.002,467.996zM 560.00,388.00 L 540.00,168.00 C 360.00,168.00 100.00-32.00 100.00-32.00 L 66.794,1.206 L 237.834,172.246 C 244.692,169.516 252.168,168.00 260.00,168.00 C 293.137,168.00 320.00,194.863 320.00,228.00 C 320.00,261.137 293.137,288.00 260.00,288.00 C 226.863,288.00 200.00,261.137 200.00,228.00 C 200.00,220.167 201.516,212.694 204.246,205.834 L 33.206,34.794 L 0.00,68.00 C 0.00,68.00 200.00,328.00 200.00,508.00 L 420.00,528.00 L 560.00,388.00 Z" data-tags="pen, blog, write, edit, note" />
<glyph unicode="&#xe004;" d="M 580.48,478.02l-49.34-49.34l-70.46,70.46l 49.34,49.34
	c 19.46,19.46, 51.02,19.46, 70.46,0.00S 599.94,497.48, 580.48,478.02z M 552.28,421.66c 3.90,3.88, 10.22,3.88, 14.10,0.00
	c 3.90-3.90, 3.90-10.22,0.00-14.10l-183.20-183.22c-3.90-3.88-10.22-3.88-14.10,0.00s-3.88,10.20,0.00,14.08l 119.80,119.80l-98.68,98.68
	l 42.28,42.26l 98.66-98.66L 552.28,421.66z M 390.22,428.68l 70.46-70.46L 178.80,76.34L 108.34,146.80L 392.60,431.06L 390.22,428.68z
	 M 44.92,12.92l 49.32,119.78l 70.46-70.46L 44.92,12.92z" data-tags="pen, writing, write, blog, edit" />
<glyph unicode="&#xe00f;" d="M 500.84,234.56L 500.84,484.30 c0.00,24.68-20.00,44.72-44.72,44.72L 64.70,529.02 
			C 40.00,529.04, 19.98,509.00, 19.98,484.30l0.00-249.74 c0.00-24.70, 20.02-44.72, 44.72-44.72l 74.58,0.00 l0.00-102.74l 114.08,102.74l 202.74,0.00 
			C 480.84,189.84, 500.84,209.86, 500.84,234.56z M 575.30,430.84l-55.96,0.00 c0.00,0.00,0.00-199.44,0.00-218.18s-24.32-42.84-43.06-42.84
			s-218.90-1.10-218.90-1.10c0.00-24.70, 20.02-39.72, 44.72-39.72l 86.18,0.00 l 112.44-102.04l-0.14,102.04l 74.72,0.00 
			c 24.72,0.00, 44.72,15.02, 44.72,39.72L 620.02,387.36 C 620.02,412.04, 600.02,430.84, 575.30,430.84z" data-tags="chat, comments, bubble, talk" />
<glyph unicode="&#xe01d;" d="M 502.64,344.70c0.00,103.30-112.54,187.04-251.32,187.04C 112.52,531.74,0.00,448.00,0.00,344.70
			c0.00-62.08, 40.64-117.08, 103.20-151.10c-0.18-0.54-49.84-90.90-49.84-90.90s 151.64,57.84, 152.06,58.08
			c 14.88-2.06, 30.22-3.10, 45.90-3.10C 390.10,157.68, 502.64,241.42, 502.64,344.70z M 687.70,286.26
			c0.00,103.28-105.94,186.28-220.62,187.02c 164.40-163.76-29.22-338.24-187.02-338.24c0.00,0.00, 17.54-35.80, 156.32-35.80
			c 15.66,0.00, 31.02,1.08, 45.90,3.12c 0.42-0.28, 152.08-58.08, 152.08-58.08s-49.68,90.34-49.84,90.88
			C 647.06,169.18, 687.70,224.20, 687.70,286.26z" horiz-adv-x="687.5" data-tags="comments, bubbles, chat, talk" />
<glyph unicode="&#xe011;" d="M 570.00,148.00L 325.08,148.00 c 7.18,12.38, 12.68,25.80, 16.32,40.00L 570.00,188.00 c 11.06,0.00, 20.00-8.94, 20.00-20.00
	C 590.00,156.96, 581.06,148.00, 570.00,148.00z M 570.00,208.00L 345.28,208.00 c 0.82,6.56, 1.38,13.22, 1.38,20.00c0.00,6.80-0.56,13.44-1.38,20.00L 570.00,248.00 
	c 11.06,0.00, 20.00-8.94, 20.00-20.00C 590.00,216.96, 581.06,208.00, 570.00,208.00z M 570.00,268.00L 341.40,268.00 c-3.66,14.20-9.14,27.62-16.32,40.00L 570.00,308.00 c 11.06,0.00, 20.00-8.94, 20.00-20.00
	C 590.00,276.96, 581.06,268.00, 570.00,268.00z M 570.00,328.00L 311.44,328.00 c-13.00,16.22-29.06,29.86-47.38,40.00L 570.00,368.00 c 11.06,0.00, 20.00-8.94, 20.00-20.00
	C 590.00,336.96, 581.06,328.00, 570.00,328.00z M 570.00,388.00l-320.00,0.00 c-11.06,0.00-20.00,8.96-20.00,20.00c0.00,11.06, 8.94,20.00, 20.00,20.00l 320.00,0.00 c 11.06,0.00, 20.00-8.94, 20.00-20.00
	C 590.00,396.96, 581.06,388.00, 570.00,388.00z M 570.00,448.00l-320.00,0.00 c-11.06,0.00-20.00,8.96-20.00,20.00c0.00,11.06, 8.94,20.00, 20.00,20.00l 320.00,0.00 c 11.06,0.00, 20.00-8.94, 20.00-20.00
	C 590.00,456.96, 581.06,448.00, 570.00,448.00z M 330.00,228.00c0.00-77.32-62.70-140.00-140.00-140.00c-77.32,0.00-140.00,62.68-140.00,140.00s 62.68,140.00, 140.00,140.00C 267.30,368.00, 330.00,305.32, 330.00,228.00z
	 M 239.56,212.78c-2.02,4.78-4.62,8.94-7.88,12.48c-3.26,3.54-6.96,6.58-11.12,9.12c-4.16,2.54-8.40,4.80-12.74,6.82
	c-4.34,2.00-8.58,3.88-12.74,5.68c-4.16,1.78-7.90,3.70-11.18,5.74c-3.30,2.04-5.92,4.38-7.88,7.00
	c-1.96,2.62-2.94,5.72-2.94,9.32c0.00,2.40, 0.44,4.68, 1.30,6.84c 0.88,2.14, 2.20,4.00, 4.00,5.54
	c 1.78,1.52, 4.02,2.74, 6.68,3.60c 2.66,0.88, 5.80,1.30, 9.38,1.30c 4.58,0.00, 8.78-0.54, 12.62-1.66
	c 3.82-1.14, 7.20-2.36, 10.12-3.74c 2.92-1.36, 5.38-2.62, 7.38-3.78c 2.00-1.16, 3.46-1.72, 4.38-1.72
	s 1.64,0.24, 2.18,0.74c 0.52,0.50, 0.96,1.28, 1.24,2.38c 0.30,1.08, 0.48,2.46, 0.62,4.12
	c 0.12,1.68, 0.18,3.74, 0.18,6.16c0.00,2.16-0.04,3.98-0.12,5.42c-0.08,1.46-0.24,2.68-0.42,3.64
	c-0.22,0.96-0.46,1.74-0.74,2.32c-0.32,0.58-0.86,1.28-1.70,2.10c-0.84,0.84-2.54,1.88-5.12,3.10
	c-2.58,1.24-5.54,2.36-8.86,3.34c-3.34,1.00-6.92,1.78-10.74,2.36c-0.78,0.12-1.58,0.08-2.36,0.18l0.00,20.68 L 183.42,331.86 
	l0.00-20.68 l0.00,0.00c-3.62-0.48-7.12-1.20-10.52-2.18c-6.62-1.92-12.36-4.80-17.24-8.68s-8.76-8.76-11.62-14.60
	c-2.88-5.88-4.30-12.68-4.30-20.42c0.00-6.74, 1.00-12.54, 2.98-17.36c 2.00-4.82, 4.60-9.02, 7.82-12.56
	c 3.22-3.54, 6.84-6.56, 10.92-9.10c 4.08-2.56, 8.30-4.82, 12.62-6.82c 4.34-2.00, 8.54-3.88, 12.62-5.68
	s 7.72-3.72, 10.92-5.74c 3.22-2.06, 5.82-4.38, 7.82-7.00c 2.00-2.64, 3.00-5.78, 3.00-9.44c0.00-3.18-0.58-6.06-1.74-8.66
	c-1.18-2.58-2.86-4.74-5.06-6.50c-2.20-1.76-4.88-3.10-8.04-4.06c-3.18-0.96-6.74-1.44-10.76-1.44
	c-6.08,0.00-11.44,0.68-16.06,2.06c-4.62,1.38-8.60,2.90-11.94,4.58c-3.34,1.66-6.06,3.16-8.18,4.56
	c-2.12,1.36-3.76,2.06-4.94,2.06c-0.84,0.00-1.58-0.24-2.18-0.68c-0.64-0.46-1.14-1.24-1.50-2.32
	c-0.38-1.10-0.64-2.50-0.82-4.26s-0.26-3.92-0.26-6.50c0.00-3.84, 0.24-6.78, 0.68-8.82
	c 0.46-2.06, 1.24-3.62, 2.32-4.68c 1.08-1.08, 2.84-2.30, 5.30-3.72s 5.52-2.74, 9.18-4.02
	c 3.66-1.26, 7.90-2.36, 12.68-3.28c 4.78-0.90, 9.98-1.34, 15.56-1.34c 0.24,0.00, 0.46,0.04, 0.72,0.04l0.00-19.26 l 19.66,0.00 l0.00,21.84 
	c 0.94,0.24, 1.94,0.36, 2.86,0.62c 7.24,2.16, 13.58,5.40, 19.00,9.68c 5.42,4.28, 9.70,9.62, 12.88,16.04
	c 3.16,6.42, 4.72,13.86, 4.72,22.36C 242.54,202.36, 241.54,207.98, 239.56,212.78z M 311.44,128.00L 570.00,128.00 c 11.06,0.00, 20.00-8.94, 20.00-20.00
	c0.00-11.04-8.94-20.00-20.00-20.00L 264.06,88.00 C 282.38,98.14, 298.44,111.78, 311.44,128.00z" data-tags="coins, money" />
<glyph unicode="&#xe015;" d="M 128.00,64.00c0.00-35.328, 28.672-64.00, 64.00-64.00c 35.36,0.00, 64.00,28.672, 64.00,64.00s-28.64,64.00-64.00,64.00C 156.672,128.00, 128.00,99.328, 128.00,64.00z M 448.00,64.00c0.00-35.328, 28.672-64.00, 64.00-64.00
	c 35.36,0.00, 64.00,28.672, 64.00,64.00s-28.64,64.00-64.00,64.00C 476.672,128.00, 448.00,99.328, 448.00,64.00z M 241.504,215.296L 595.712,316.48C 602.464,318.432, 608.00,325.76, 608.00,332.80L 608.00,508.80 L 156.80,508.80 L 156.80,563.20 
	C 156.80,570.24, 151.072,576.00, 144.00,576.00L 44.80,576.00 C 37.76,576.00, 32.00,570.24, 32.00,563.20L 32.00,512.00 l 62.176,0.00 l 62.976-289.824L 163.232,192.00l0.00-48.00 c0.00-7.04, 5.76-12.80, 12.768-12.80L 192.00,131.20 l 320.00,0.00 l 83.232,0.00 
	C 602.24,131.20, 608.00,136.96, 608.00,144.00L 608.00,192.00 L 248.064,192.00 C 211.296,192.00, 210.528,206.40, 241.504,215.296z" data-tags="cart, shop, buy, purchase, ecommerce" />
<glyph unicode="&#xe019;" d="M0.00,328.00l0.00,60.00 l 75.00,0.00 l 150.62,150.64C 224.62,541.62, 223.76,544.66, 223.76,548.00
	c0.00,16.58, 13.42,30.00, 30.00,30.00c 16.56,0.00, 30.00-13.42, 30.00-30.00c0.00-16.56-13.44-30.00-30.00-30.00c-2.22,0.00-4.18,0.82-6.24,1.26L 116.24,388.00l 387.08,0.00 
	l-130.50,131.58C 370.24,518.86, 367.78,518.00, 365.00,518.00c-16.56,0.00-30.00,13.44-30.00,30.00c0.00,16.58, 13.44,30.00, 30.00,30.00s 30.00-13.42, 30.00-30.00
	c0.00-3.06-0.90-5.86-1.76-8.66L 544.58,388.00L 620.00,388.00 l0.00-60.00 L0.00,328.00 z M 497.38,29.96c-5.86-23.44-22.10-22.14-22.10-22.14L 143.38,7.18
	c-16.92,0.00-21.46,21.44-21.46,21.44L 34.18,307.72l 551.48,0.52L 497.38,29.96z M 199.98,268.00l-20.00,0.00 l0.00-100.00 l 20.00,0.00 L 199.98,268.00 z M 199.98,148.00l-20.00,0.00 l0.00-100.00 l 20.00,0.00 L 199.98,148.00 z M 239.98,268.00
	L 220.00,268.00 l0.00-100.00 l 19.98,0.00 L 239.98,268.00 z M 239.98,148.00L 220.00,148.00 l0.00-100.00 l 19.98,0.00 L 239.98,148.00 z M 279.98,268.00l-20.00,0.00 l0.00-100.00 l 20.00,0.00 L 279.98,268.00 z M 279.98,148.00l-20.00,0.00 l0.00-100.00 l 20.00,0.00 L 279.98,148.00 z M 320.00,268.00l-20.00,0.00 l0.00-100.00 l 20.00,0.00 L 320.00,268.00 z M 320.00,148.00l-20.00,0.00 l0.00-100.00 l 20.00,0.00 L 320.00,148.00 z
	 M 360.00,268.00l-20.00,0.00 l0.00-100.00 l 20.00,0.00 L 360.00,268.00 z M 360.00,148.00l-20.00,0.00 l0.00-100.00 l 20.00,0.00 L 360.00,148.00 z M 400.00,268.00l-20.00,0.00 l0.00-100.00 l 20.00,0.00 L 400.00,268.00 z M 400.00,148.00l-20.00,0.00 l0.00-100.00 l 20.00,0.00 L 400.00,148.00 z M 440.00,268.00l-20.00,0.00 l0.00-100.00 l 20.00,0.00 L 440.00,268.00 z M 440.00,148.00l-20.00,0.00 l0.00-100.00 l 20.00,0.00 L 440.00,148.00 z" data-tags="basket, shop, cart, ecommerce, buy, purchase" />
<glyph unicode="&#xe01a;" d="M 638.28,500.00L 580.00,268.00c0.00-2.78-0.56-5.40-1.56-7.78
	c-2.04-4.80-5.86-8.64-10.64-10.66C 565.40,248.54, 562.76,248.00, 560.00,248.00L 180.00,248.00 l 16.00-80.00L 540.00,168.00 c 11.06,0.00, 20.00-8.94, 20.00-20.00s-8.94-20.00-20.00-20.00L 180.00,128.00 
	c-11.06,0.00-20.00,8.94-20.00,20.00L 84.00,528.00L 20.00,528.00 C 8.96,528.00,0.00,536.96,0.00,548.00s 8.96,20.00, 20.00,20.00l 80.00,0.00 c 11.06,0.00, 20.00-8.96, 20.00-20.00l 4.00-20.00L 620.00,528.00 c 11.06,0.00, 20.00-8.96, 20.00-20.00
	C 640.00,505.14, 639.36,502.46, 638.28,500.00z M 172.00,288.00L 240.00,288.00 L 240.00,488.00 L 132.00,488.00 L 172.00,288.00z M 360.00,488.00l-100.00,0.00 l0.00-200.00 l 100.00,0.00 L 360.00,488.00 z M 480.00,488.00l-100.00,0.00 l0.00-200.00 l 100.00,0.00 L 480.00,488.00 z M 500.00,488.00l0.00-200.00 l 45.06,0.00 l 50.66,200.00L 500.00,488.00 z
	 M 220.00,88.00c 33.14,0.00, 60.00-26.88, 60.00-60.00s-26.86-60.00-60.00-60.00s-60.00,26.88-60.00,60.00S 186.86,88.00, 220.00,88.00z M 220.00,8.00c 11.06,0.00, 20.00,8.94, 20.00,20.00s-8.94,20.00-20.00,20.00s-20.00-8.94-20.00-20.00
	S 208.94,8.00, 220.00,8.00z M 500.00,88.00c 33.14,0.00, 60.00-26.88, 60.00-60.00s-26.86-60.00-60.00-60.00s-60.00,26.88-60.00,60.00S 466.86,88.00, 500.00,88.00z M 500.00,8.00c 11.06,0.00, 20.00,8.94, 20.00,20.00s-8.94,20.00-20.00,20.00
	s-20.00-8.94-20.00-20.00S 488.94,8.00, 500.00,8.00z" data-tags="cart, shopping, ecommerce, buy, purchase" />
<glyph unicode="&#xe01b;" d="M 80.00,28.00A60.00,60.00 10980.00 1 1 200.00,28A60.00,60.00 10980.00 1 1 80.00,28zM 480.00,28.00A60.00,60.00 10980.00 1 1 600.00,28A60.00,60.00 10980.00 1 1 480.00,28zM 600.00,288.00L 600.00,528.00 L 80.00,528.00 C 80.00,572.182, 44.184,608.00,0.00,608.00l0.00-40.00 c 22.056,0.00, 40.00-17.944, 40.00-40.00l 30.046-257.534C 51.737,255.805, 40.00,233.279, 40.00,208.00
		c0.00-44.184, 35.818-80.00, 80.00-80.00l 480.00,0.00 l0.00,40.00 L 120.00,168.00 c-22.091,0.00-40.00,17.909-40.00,40.00c0.00,0.138, 0.009,0.273, 0.01,0.41L 600.00,288.00z" data-tags="cart, ecommerce, shopping, products, purchase, buy, store" />
<glyph unicode="&#xe01c;" d="M 25.60,288.00c0.00-162.592, 131.84-294.40, 294.40-294.40c 162.592,0.00, 294.40,131.808, 294.40,294.40C 614.40,450.592, 482.592,582.40, 320.00,582.40C 157.408,582.40, 25.60,450.592, 25.60,288.00z
		 M 550.40,288.00c0.00-127.232-103.168-230.40-230.40-230.40S 89.60,160.736, 89.60,288.00C 89.60,415.264, 192.736,518.40, 320.00,518.40S 550.40,415.264, 550.40,288.00z M 196.80,345.60l0.00-115.20 l 130.88,0.00 l0.00-72.00 
		L 449.60,288.00l-121.92,129.60L 327.68,345.60 L 196.80,345.60 z" data-tags="arrow-right, right, next" />
<glyph unicode="&#xe01e;" d="M0.00,288.00c0.00-176.72, 143.28-320.00, 320.00-320.00c 176.74,0.00, 320.00,143.28, 320.00,320.00c0.00,176.74-143.26,320.00-320.00,320.00C 143.28,608.00,0.00,464.74,0.00,288.00z M 480.00,288.00
	l-160.00-160.00l0.00,120.00 L 160.00,248.00 l0.00,80.00 l 160.00,0.00 L 320.00,448.00 L 480.00,288.00z" data-tags="arrow-right-alt1, right, next" />
<glyph unicode="&#xe04f;" d="M 630.86,604.80C 627.54,606.94, 623.76,608.00, 620.00,608.00c-3.86,0.00-7.74-1.10-11.10-3.36l-600.00-400.00
	c-6.18-4.10-9.58-11.32-8.78-18.72c 0.76-7.38, 5.56-13.76, 12.46-16.48l 156.48-62.62l 73.58-128.76
	c 3.52-6.18, 10.06-10.00, 17.14-10.08c 0.08,0.00, 0.14,0.00, 0.22,0.00c 7.02,0.00, 13.54,3.72, 17.14,9.72l 41.54,69.26l 193.90-77.54
	C 514.96-31.54, 517.46-32.00, 520.00-32.00c 3.40,0.00, 6.76,0.86, 9.80,2.58c 5.28,2.96, 8.90,8.16, 9.92,14.14l 100.00,600.00
	C 641.02,592.58, 637.54,600.46, 630.86,604.80z M 62.72,192.46L 526.22,501.48L 189.22,140.74c-1.78,1.06-3.36,2.46-5.32,3.24
	L 62.72,192.46z M 203.78,126.68c-0.04,0.08-0.10,0.12-0.14,0.20L 582.50,532.38L 259.52,29.14L 203.78,126.68z M 504.34,15.82
	l-170.82,68.32c-4.06,1.60-8.28,2.14-12.46,2.38L 584.10,494.28L 504.34,15.82z" data-tags="paperplane, send, flight, email" />
<glyph unicode="&#xe050;" d="M 579.96,437.38l-42.68,42.68c-7.88,7.86-20.60,7.86-28.46,0.00L 252.92,224.16
	L 131.20,346.76c-7.86,7.86-20.58,7.86-28.46,0.00l-42.68-42.68c-7.86-7.88-7.86-20.60,0.00-28.46l 178.48-179.68
	c 7.86-7.86, 20.60-7.86, 28.46,0.00L 579.96,408.92C 587.82,416.76, 587.82,429.52, 579.96,437.38z" data-tags="checkmark, tick, approve, submit" />
<glyph unicode="&#xe051;" d="M 372.76,372.06L 372.76,568.00L 267.24,568.00L 267.24,372.06L 120.00,372.06L 320.00,168.00L 520.00,372.06 	zM 560.00,248.00L 560.00,88.00L 80.00,88.00L 80.00,248.00L0.00,248.00L0.00,8.00L 640.00,8.00L 640.00,248.00 	z" data-tags="download" />
<glyph unicode="&#xe052;" d="M 299.40,402.82l 70.80,0.00 l0.00-62.76 l0.00-76.84 l 86.68,2.56l-122.08-114.80l-122.08,114.80l 86.68-2.56
	L 299.40,402.82 z M 524.44,322.12c 0.06,1.64, 0.08,3.26, 0.08,4.90c0.00,88.90-71.10,160.98-158.80,160.98c-66.38,0.00-123.26-41.30-146.98-99.96
	c-13.88,10.66-31.34,17.02-50.32,17.02c-45.18,0.00-81.80-36.04-81.80-80.48c0.00-2.20, 0.08-4.38, 0.26-6.54
	C 36.82,304.52,0.00,259.08,0.00,205.08C0.00,140.40, 52.78,88.00, 117.90,88.00l 2.42,0.00 l 399.38,0.00 l 2.42,0.00 C 587.22,88.00, 640.00,140.40, 640.00,205.08
	C 640.00,268.96, 588.48,320.90, 524.44,322.12z" data-tags="cloud-dl, download" />
<glyph unicode="&#xe053;" d="M 552.48,188.90l-19.16-101.44L 106.68,87.46 l-19.16,101.44L 39.82,188.90 l0.00-161.24 l 560.36,0.00 l0.00,161.24 L 552.48,188.90 z M 540.40,369.08l-140.44,0.00 l0.00,58.60 l-159.88,0.00 l0.00-58.60 
	L 100.98,369.08 l 218.28-228.24L 540.40,369.08z M 399.94,528.36l-159.88,0.00 l0.00-21.32 l 159.88,0.00 L 399.94,528.36 z M 399.94,488.54l-159.88,0.00 l0.00-40.76 l 159.88,0.00 L 399.94,488.54 z" data-tags="download, store, save" />
<glyph unicode="&#xe054;" d="M 320.00,556.80c-148.48,0.00-268.80-120.384-268.80-268.80c0.00-148.48, 120.352-268.80, 268.80-268.80c 148.448,0.00, 268.80,120.352, 268.80,268.80C 588.80,436.448, 468.448,556.80, 320.00,556.80z
		 M 375.328,288.00l 97.952-97.952l-55.328-55.328L 320.00,232.672l-97.952-97.952l-55.296,55.328L 264.672,288.00l-97.92,97.92l 55.296,55.328L 320.00,343.328l 97.952,97.92
		l 55.328-55.296L 375.328,288.00z" data-tags="cross, cancel, close, remove, delete" />
<glyph unicode="&#xe055;" d="M 320.00,608.00C 143.269,608.00,0.00,464.731,0.00,288.00s 143.269-320.00, 320.00-320.00s 320.00,143.269, 320.00,320.00S 496.731,608.00, 320.00,608.00z M 480.00,391.431L 376.57,288.00
	L 480.00,184.57L 480.00,128.00 l-56.57,0.00 L 320.00,231.43L 216.569,128.00L 160.00,128.00 l0.00,56.57 L 263.431,288.00L 160.00,391.431L 160.00,448.00 l 56.569,0.00 L 320.00,344.569L 423.43,448.00L 480.00,448.00 
	L 480.00,391.431 z" data-tags="cancel-circle, close, remove, delete" />
<glyph unicode="&#xe056;" d="M 120.00-32.00L 520.00-32.00L 560.00,408.00L 80.00,408.00 	zM 400.00,528.00L 400.00,608.00 L 240.00,608.00 l0.00-80.00 L 40.00,528.00 l0.00-120.00 l 40.00,40.00l 480.00,0.00 l 40.00-40.00L 600.00,528.00 L 400.00,528.00 z M 360.00,528.00l-80.00,0.00 L 280.00,568.00 l 80.00,0.00 L 360.00,528.00 z" data-tags="remove, delete, trashcan, recycle bin, bin, dispose" />
<glyph unicode="&#xe00e;" d="M 561.44,113.024l-120.928,120.928c 18.24,29.984, 28.736,65.12, 28.736,102.784c0.00,109.312-94.752,204.064-204.096,204.064
		C 155.84,540.80, 67.20,452.16, 67.20,342.848c0.00-109.344, 94.72-204.096, 204.064-204.096c 36.352,0.00, 70.40,9.856, 99.68,26.976l 121.568-121.60
		c 11.936-11.904, 31.20-11.904, 43.072,0.00l 30.176,30.144C 577.632,86.176, 573.312,101.152, 561.44,113.024z M 128.128,342.848
		c0.00,75.68, 61.344,137.056, 137.024,137.056c 75.712,0.00, 143.168-67.456, 143.168-143.168s-61.344-137.056-137.056-137.056S 128.128,267.136, 128.128,342.848z" data-tags="search, magnifier, lookup, find" />
<glyph unicode="&#xf308;" d="M 640.00,208.00q 1.25-11.25 1.25-20.00t-1.25-20.00l-40.00,0.00 q-1.875-15.00 -5.625-30.00l 36.875-15.625q-5.625-18.125 -15.00-36.875l-37.50,15.625q-6.875-13.125 -16.875-25.625l 28.125-28.125q-12.50-15.625 -28.125-28.125l-28.125,28.125q-12.50-10.00 -25.625-16.875l 15.625-36.875q-18.75-10.00 -36.875-15.625l-15.625,36.875q-15.00-3.75 -30.00-5.625l0.00-40.00 q-11.25-1.25 -20.00-1.25t-20.00,1.25l0.00,40.00 q-15.00,1.875 -30.00,5.625l-15.00-36.875q-18.75,5.625 -37.50,15.625l 15.625,36.875
q-13.125,6.875 -25.00,16.875l-28.75-28.125q-15.625,12.50 -28.125,28.125l 28.125,28.125q-9.375,12.50 -16.875,25.625l-36.875-15.625q-10.00,18.75 -15.625,36.875l 37.50,15.625q-4.375,15.00 -6.25,30.00l-40.00,0.00 q-1.25,11.25 -1.25,20.00t 1.25,20.00l 40.00,0.00 q 1.875,15.00 6.25,30.00l-37.50,15.625q 5.625,18.125 15.625,36.875l 36.875-15.625q 7.50,13.125 16.875,25.625l-28.125,28.125q 12.50,15.625 28.125,28.125l 28.75-28.125q 11.875,10.00 25.00,16.875l-15.625,37.50q 18.75,9.375 37.50,15.00l 15.00-36.875q 15.00,4.375 30.00,5.625l0.00,40.00 
q 11.25,1.25 20.00,1.25t 20.00-1.25l0.00-40.00 q 15.00-1.25 30.00-5.625l 15.625,36.875q 18.125-5.625 36.875-15.00l-15.625-37.50q 13.125-7.50 25.625-16.875l 28.125,28.125q 15.625-12.50 28.125-28.125l-28.125-28.125q 10.00-12.50 16.875-25.625l 37.50,15.625q 9.375-18.75 15.00-36.875l-36.875-15.625q 3.75-15.00 5.625-30.00l 40.00,0.00 zM 421.25,288.00q-41.25,0.00 -70.625-29.375t-29.375-70.625t 29.375-70.625t 70.625-29.375t 70.625,29.375t 29.375,70.625t-29.375,70.625t-70.625,29.375zM 280.625,421.75l-7.50-19.375
q-1.875-3.75 -5.938-5.625t-7.813,0.00l-35.625,14.375q-10.625-15.00 -25.625-25.00l 15.00-35.625q 1.875-4.375 0.00-8.125t-5.625-5.625l-19.375-8.125q-3.75-1.875 -7.813,0.00t-5.938,5.625l-15.00,35.625q-10.00-1.875 -18.125-1.875q-7.50,0.00 -17.50,1.875l-15.00-35.625q-1.25-3.75 -5.313-5.625t-8.438,0.00l-18.75,8.125q-4.375,1.25 -5.938,5.313t-0.313,8.438l 15.00,35.00q-15.00,10.625 -25.625,25.625l-35.625-15.00q-3.75-1.25 -7.813,0.313t-5.938,5.313l-7.50,19.375
q-1.875,4.375 -0.313,8.438t 5.938,5.313l 35.00,15.00q-1.875,10.00 -1.875,18.125q0.00,7.50 1.875,18.125l-35.625,14.375q-3.75,1.875 -5.313,5.625t-0.313,8.125l 8.125,19.375q 1.875,3.75 5.625,5.625t 8.125,0.00l 35.625-14.375q 10.00,15.00 25.00,25.00l-14.375,35.625q-1.875,4.375 -0.313,8.125t 5.938,5.625l 19.375,8.125q 3.75,1.875 7.813,0.00t 5.938-5.625l 14.375-35.625q 10.00,1.875 18.125,1.875t 18.125-1.875l 14.375,35.625q 1.875,4.375 5.938,5.938t 7.813-0.313l 19.375-8.125q 4.375-1.25 5.938-5.313t-0.313-7.813
l-14.375-35.625q 15.00-10.625 25.625-25.625l 35.00,15.00q 4.375,1.25 8.438-0.313t 5.313-5.313l 8.125-19.375q 1.875-4.375 0.313-8.438t-5.938-5.313l-35.625-15.00q 1.875-10.00 1.875-18.125t-1.875-18.125l 35.625-14.375q 4.375-1.875 5.938-5.625t-0.313-8.125zM 141.563,528.00q-24.688,0.00 -42.50-17.50t-17.813-42.50t 17.813-42.50t 42.50-17.50t 42.188,17.50t 17.50,42.50t-17.50,42.50t-42.188,17.50z" data-tags="settings4" />
<glyph unicode="&#xe057;" d="M 607.82,354.40l-61.28,12.28c-3.08,8.86-6.72,17.46-10.74,25.78l 34.72,52.08
		c 10.58,15.86, 8.48,37.00-5.00,50.46l-38.48,38.48c-7.74,7.74-17.96,11.72-28.32,11.72c-7.66,0.00-15.40-2.20-22.14-6.72
		l-52.08-34.70c-8.36,4.04-16.96,7.64-25.82,10.72L 386.40,575.80c-3.72,18.72-20.16,32.16-39.22,32.16l-54.40,0.00 
		c-19.06,0.00-35.48-13.46-39.22-32.16l-12.28-61.30c-8.86-3.08-17.46-6.70-25.78-10.72L 163.44,538.48
		C 156.66,543.00, 148.94,545.20, 141.26,545.20c-10.34,0.00-20.56-3.98-28.30-11.72L 74.50,495.00c-13.48-13.48-15.58-34.60-5.00-50.46l 34.70-52.08
		c-4.04-8.34-7.64-16.94-10.72-25.80L 32.16,354.40C 13.46,350.66,0.00,334.24,0.00,315.18l0.00-54.40 c0.00-19.06, 13.46-35.50, 32.16-39.22
		l 61.30-12.30c 3.08-8.86, 6.70-17.46, 10.72-25.78L 69.50,131.40c-10.58-15.86-8.48-37.00, 5.00-50.46l 38.48-38.48
		c 7.74-7.74, 17.96-11.72, 28.30-11.72c 7.68,0.00, 15.42,2.22, 22.16,6.72l 52.08,34.72c 8.34-4.06, 16.94-7.66, 25.80-10.74
		l 12.26-61.28c 3.74-18.72, 20.16-32.18, 39.22-32.18l 54.40,0.00 c 19.06,0.00, 35.50,13.48, 39.22,32.18l 12.30,61.28
		c 8.86,3.08, 17.46,6.72, 25.78,10.74l 52.08-34.72c 6.76-4.50, 14.50-6.72, 22.14-6.72c 10.36,0.00, 20.58,3.98, 28.32,11.72
		l 38.48,38.48c 13.48,13.48, 15.58,34.60, 5.00,50.46l-34.72,52.08c 4.06,8.36, 7.66,16.96, 10.74,25.82l 61.28,12.26
		C 626.52,225.26, 640.00,241.72, 640.00,260.78l0.00,54.40 C 640.00,334.24, 626.52,350.66, 607.82,354.40z M 538.68,248.50
		c-13.90-2.78-25.28-12.70-29.92-26.10c-2.58-7.38-5.58-14.54-8.94-21.48c-6.22-12.78-5.16-27.86, 2.70-39.64l 34.72-52.08
		l-38.48-38.48l-52.08,34.72c-6.68,4.46-14.42,6.72-22.18,6.72c-5.94,0.00-11.92-1.32-17.42-3.98
		c-6.96-3.36-14.10-6.40-21.52-8.98c-13.36-4.64-23.28-16.02-26.06-29.92l-12.30-61.32l-54.40,0.00 l-12.26,61.32
		c-2.78,13.90-12.70,25.28-26.08,29.92c-7.38,2.58-14.56,5.58-21.50,8.94c-5.52,2.70-11.48,4.02-17.44,4.02
		c-7.78,0.00-15.50-2.26-22.18-6.72l-52.08-34.72l-38.48,38.48l 34.70,52.08c 7.86,11.80, 8.88,26.88, 2.74,39.60
		c-3.36,6.96-6.38,14.10-8.96,21.52c-4.64,13.36-16.04,23.28-29.92,26.06l-61.30,12.30L 40.00,315.18l 61.32,12.26
		c 13.88,2.78, 25.28,12.70, 29.92,26.08c 2.58,7.38, 5.56,14.56, 8.94,21.50c 6.20,12.76, 5.16,27.84-2.72,39.62L 102.78,466.72
		L 141.24,505.20l 52.08-34.70C 200.00,466.04, 207.74,463.78, 215.50,463.78c 5.94,0.00, 11.90,1.32, 17.42,3.98c 6.94,3.36, 14.10,6.38, 21.50,8.96
		c 13.38,4.64, 23.30,16.04, 26.08,29.92l 12.28,61.30l 54.40,0.02l 12.26-61.32c 2.78-13.88, 12.70-25.28, 26.10-29.92
		c 7.38-2.58, 14.54-5.56, 21.48-8.94c 5.54-2.68, 11.48-4.00, 17.46-4.00c 7.78,0.00, 15.50,2.26, 22.18,6.72l 52.08,34.70l 38.48-38.48
		l-34.72-52.08c-7.86-11.80-8.86-26.86-2.74-39.60c 3.36-6.94, 6.40-14.10, 8.98-21.50c 4.64-13.38, 16.02-23.30, 29.92-26.08
		l 61.28-12.28L 600.00,260.78L 538.68,248.50zM 320.00,427.98c-77.30,0.00-140.00-62.70-140.00-140.00c0.00-77.32, 62.70-140.00, 140.00-140.00s 140.00,62.70, 140.00,140.00C 460.00,365.28, 397.30,427.98, 320.00,427.98z
		 M 320.00,165.46c-67.64,0.00-122.50,54.88-122.50,122.50c0.00,67.64, 54.86,122.50, 122.50,122.50c 67.62,0.00, 122.50-54.86, 122.50-122.50
		C 442.50,220.34, 387.62,165.46, 320.00,165.46zM 320.00,367.98c-44.20,0.00-80.00-35.80-80.00-80.00c0.00-44.18, 35.80-80.00, 80.00-80.00c 44.18,0.00, 80.00,35.82, 80.00,80.00C 400.00,332.16, 364.18,367.98, 320.00,367.98z
		 M 320.00,227.96c-33.12,0.00-60.00,26.88-60.00,60.00c0.00,33.12, 26.88,60.00, 60.00,60.00s 60.00-26.88, 60.00-60.00C 380.00,254.84, 353.12,227.96, 320.00,227.96z" data-tags="settings, cog, preferences" />
<glyph unicode="&#xf085;" d="M 320.00,288.00q0.00,37.857 -26.786,64.643t-64.643,26.786t-64.643-26.786t-26.786-64.643t 26.786-64.643t 64.643-26.786t 64.643,26.786t 26.786,64.643zM 594.286,105.143q0.00,18.571 -13.571,32.143t-32.143,13.571t-32.143-13.571t-13.571-32.143q0.00-18.929 13.393-32.321t 32.321-13.393t 32.321,13.393t 13.393,32.321zM 594.286,470.857q0.00,18.571 -13.571,32.143t-32.143,13.571t-32.143-13.571t-13.571-32.143q0.00-18.929 13.393-32.321t 32.321-13.393 t 32.321,13.393t 13.393,32.321zM 457.143,320.50l0.00-66.071 q0.00-3.571 -2.50-6.964t-5.714-3.75l-55.357-8.571q-3.929-12.50 -11.429-27.143q 12.143-17.143 32.143-41.071q 2.50-3.571 2.50-7.143q0.00-4.286 -2.50-6.786q-8.214-10.714 -29.464-31.964t-28.036-21.25q-3.929,0.00 -7.50,2.50l-41.071,32.143q-13.214-6.786 -27.50-11.071q-3.929-38.571 -8.214-55.357q-2.50-8.571 -10.714-8.571l-66.429,0.00 q-3.929,0.00 -7.143,2.679t-3.571,6.25 l-8.214,54.643q-12.143,3.571 -26.786,11.071l-42.143-31.786q-2.50-2.50 -7.143-2.50q-3.929,0.00 -7.50,2.857q-51.429,47.50 -51.429,57.143q0.00,3.214 2.50,6.786q 3.571,5.00 14.643,18.929t 16.786,21.786q-8.214,15.714 -12.50,29.286l-54.286,8.571q-3.571,0.357 -6.071,3.393t-2.50,6.964l0.00,66.071 q0.00,3.571 2.50,6.964t 5.714,3.75l 55.357,8.571q 3.929,12.50 11.429,27.143q-12.143,17.143 -32.143,41.071q-2.50,3.929 -2.50,7.143q0.00,4.286 2.50,7.143q 7.857,10.714 29.286,31.786t 28.214,21.071q 3.929,0.00 7.50-2.50 l 41.071-32.143q 12.143,6.429 27.50,11.429q 3.929,38.571 8.214,55.00q 2.50,8.571 10.714,8.571l 66.429,0.00 q 3.929,0.00 7.143-2.679t 3.571-6.25l 8.214-54.643q 12.143-3.571 26.786-11.071l 42.143,31.786q 2.857,2.50 7.143,2.50q 3.929,0.00 7.50-2.857q 51.429-47.50 51.429-57.143q0.00-3.214 -2.50-6.786q-4.286-5.714 -15.00-19.286t-16.071-21.429q 8.214-17.143 12.143-29.286l 54.286-8.214q 3.571-0.714 6.071-3.75t 2.50-6.964zM 685.714,130.143l0.00-50.00 q0.00-5.714 -53.214-11.071 q-4.286-9.643 -10.714-18.571q 18.214-40.357 18.214-49.286q0.00-1.429 -1.429-2.50q-43.571-25.357 -44.286-25.357q-2.857,0.00 -16.429,16.786t-18.571,24.286q-7.143-0.714 -10.714-0.714t-10.714,0.714q-5.00-7.50 -18.571-24.286t-16.429-16.786q-0.714,0.00 -44.286,25.357q-1.429,1.071 -1.429,2.50q0.00,8.929 18.214,49.286q-6.429,8.929 -10.714,18.571q-53.214,5.357 -53.214,11.071l0.00,50.00 q0.00,5.714 53.214,11.071q 4.643,10.357 10.714,18.571q-18.214,40.357 -18.214,49.286q0.00,1.429 1.429,2.50q 1.429,0.714 12.50,7.143 t 21.071,12.143t 10.714,5.714q 2.857,0.00 16.429-16.607t 18.571-24.107q 7.143,0.714 10.714,0.714t 10.714-0.714q 18.214,25.357 32.857,40.00l 2.143,0.714q 1.429,0.00 44.286-25.00q 1.429-1.071 1.429-2.50q0.00-8.929 -18.214-49.286q 6.071-8.214 10.714-18.571q 53.214-5.357 53.214-11.071zM 685.714,495.857l0.00-50.00 q0.00-5.714 -53.214-11.071q-4.286-9.643 -10.714-18.571q 18.214-40.357 18.214-49.286q0.00-1.429 -1.429-2.50q-43.571-25.357 -44.286-25.357q-2.857,0.00 -16.429,16.786t-18.571,24.286 q-7.143-0.714 -10.714-0.714t-10.714,0.714q-5.00-7.50 -18.571-24.286t-16.429-16.786q-0.714,0.00 -44.286,25.357q-1.429,1.071 -1.429,2.50q0.00,8.929 18.214,49.286q-6.429,8.929 -10.714,18.571q-53.214,5.357 -53.214,11.071l0.00,50.00 q0.00,5.714 53.214,11.071q 4.643,10.357 10.714,18.571q-18.214,40.357 -18.214,49.286q0.00,1.429 1.429,2.50q 1.429,0.714 12.50,7.143t 21.071,12.143t 10.714,5.714q 2.857,0.00 16.429-16.607t 18.571-24.107q 7.143,0.714 10.714,0.714t 10.714-0.714q 18.214,25.357 32.857,40.00l 2.143,0.714q 1.429,0.00 44.286-25.00 q 1.429-1.071 1.429-2.50q0.00-8.929 -18.214-49.286q 6.071-8.214 10.714-18.571q 53.214-5.357 53.214-11.071z" horiz-adv-x="685.7142857142858" data-tags="cogs, settings, options, preferences, gears" />
<glyph unicode="&#xe058;" d="M 425.36,167.22l 14.18,14.18c 15.66,15.66, 15.66,41.06,0.00,56.72l-24.48,24.46
			c 7.88,13.72, 14.06,28.48, 18.36,44.06l 26.48,0.00 c 22.14,0.00, 40.10,17.96, 40.10,40.10l0.00,20.04 c0.00,22.14-17.94,40.10-40.10,40.10l-26.16,0.00 
			C 429.58,422.30, 423.68,436.98, 416.00,450.60l 23.54,23.52c 15.66,15.66, 15.66,41.06,0.00,56.72l-14.18,14.16
			c-15.66,15.66-41.06,15.66-56.72,0.00l-23.06-23.06c-14.10,8.22-29.34,14.62-45.44,19.02L 300.14,567.90 C 300.12,590.06, 282.16,608.00, 260.02,608.00
			l-20.04,0.00 c-22.14,0.00-40.12-17.94-40.12-40.10l0.00-26.94 c-16.10-4.40-31.32-10.80-45.44-19.02L 131.34,545.02
			c-15.64,15.66-41.04,15.66-56.70,0.00L 60.46,530.86c-15.66-15.66-15.66-41.06,0.00-56.72L 83.98,450.60c-7.66-13.62-13.60-28.30-17.74-43.74
			L 40.10,406.86 C 17.94,406.88,0.00,388.92,0.00,366.76l0.00-20.04 c0.00-22.14, 17.94-40.10, 40.10-40.10l 26.46,0.00 c 4.32-15.58, 10.48-30.34, 18.38-44.06
			l-24.48-24.46c-15.66-15.66-15.66-41.06,0.00-56.72l 14.18-14.18c 15.66-15.66, 41.06-15.66, 56.70,0.00l 24.62,24.62
			c 13.68-7.78, 28.38-13.84, 43.88-18.06l0.00-25.68 c0.00-22.12, 17.96-40.10, 40.12-40.10l 20.04,0.00 c 22.14,0.00, 40.10,17.96, 40.10,40.10l0.00,25.68 
			c 15.50,4.22, 30.24,10.30, 43.88,18.06l 24.62-24.62C 384.30,151.56, 409.68,151.56, 425.36,167.22z M 250.00,245.86
			c-60.90,0.00-110.28,49.36-110.28,110.28c0.00,60.90, 49.38,110.28, 110.28,110.28s 110.28-49.38, 110.28-110.28
			C 360.28,295.22, 310.90,245.86, 250.00,245.86z M 250.00,407.50c-27.70,0.00-50.14-22.44-50.14-50.12s 22.44-50.12, 50.14-50.12
			c 27.68,0.00, 50.12,22.44, 50.12,50.12S 277.68,407.50, 250.00,407.50z M 501.24,30.76c-13.44,0.00-24.32-10.88-24.32-24.32
			c0.00-13.42, 10.88-24.30, 24.32-24.30c 13.42,0.00, 24.32,10.88, 24.32,24.30C 525.56,19.88, 514.66,30.76, 501.24,30.76z M 603.04,30.46
			l-12.68,0.00 c-2.02,7.48-4.90,14.60-8.62,21.22l 11.40,11.40c 7.60,7.60, 7.60,19.92,0.00,27.50l-6.88,6.88c-7.60,7.60-19.90,7.60-27.50,0.00
			l-11.20-11.18c-6.84,3.98-14.24,7.08-22.04,9.22l0.00,13.04 c0.00,10.74-8.72,19.46-19.46,19.46l-9.72,0.00 
			c-10.74,0.00-19.46-8.72-19.46-19.46l0.00-13.04 c-7.82-2.14-15.20-5.24-22.04-9.22l-11.20,11.18c-7.60,7.60-19.92,7.60-27.50,0.00
			l-6.88-6.88c-7.60-7.58-7.60-19.90,0.00-27.50l 11.40-11.40c-3.74-6.60-6.60-13.74-8.62-21.22l-12.68,0.00 
			c-10.74,0.00-19.46-8.72-19.46-19.46l0.00-9.72 c0.00-10.74, 8.72-19.46, 19.46-19.46l 12.84,0.00 c 2.08-7.54, 5.08-14.70, 8.90-21.36
			l-11.86-11.86c-7.60-7.60-7.60-19.90,0.00-27.52l 6.88-6.88c 7.58-7.58, 19.90-7.58, 27.50,0.00l 11.94,11.96
			c 6.64-3.76, 13.76-6.72, 21.28-8.76l0.00-12.46 c0.00-10.74, 8.72-19.46, 19.46-19.46l 9.72,0.00 c 10.74,0.00, 19.46,8.72, 19.46,19.46l0.00,12.46 
			c 7.52,2.04, 14.64,4.98, 21.26,8.76l 11.96-11.96c 7.60-7.58, 19.90-7.58, 27.50,0.00l 6.88,6.88c 7.60,7.62, 7.60,19.92,0.00,27.52
			l-11.86,11.86c 3.80,6.66, 6.82,13.82, 8.90,21.36l 12.84,0.00 c 10.74,0.00, 19.46,8.72, 19.46,19.46L 622.42,11.00 
			C 622.50,21.76, 613.78,30.46, 603.04,30.46z M 501.24-47.64c-29.54,0.00-53.48,23.94-53.48,53.50c0.00,29.54, 23.94,53.48, 53.48,53.48
			s 53.48-23.94, 53.48-53.48C 554.72-23.70, 530.78-47.64, 501.24-47.64z" data-tags="cogs, settings, gears, options, generate" />
<glyph unicode="&#x20;" horiz-adv-x="320" />
<glyph class="hidden" unicode="&#xf000;" d="M0,608L 640 -32L0 -32 z" horiz-adv-x="0" />
</font>
</defs>
</svg>
